<svg width="24" height="24" viewBox="0 0 24 24" fill="none" xmlns="http://www.w3.org/2000/svg">
<g clip-path="url(#clip0_173_2611)">
<path d="M12 15.4512V16.6055" stroke="#6D6D6D" stroke-linecap="round" stroke-linejoin="round"/>
<path d="M12 9.72559V10.7999" stroke="#6D6D6D" stroke-linecap="round" stroke-linejoin="round"/>
<path d="M12.0002 19.4171C16.0002 19.4171 18.8574 18 18.8574 14.8457C18.8574 11.4171 17.1431 9.13139 13.7145 7.41711L15.0631 5.67997C15.1316 5.56599 15.1687 5.43593 15.1708 5.30296C15.1728 5.16999 15.1397 5.03885 15.0747 4.92282C15.0097 4.80679 14.9152 4.71 14.8008 4.64227C14.6864 4.57453 14.556 4.53825 14.4231 4.53711H9.57735C9.44437 4.53825 9.31406 4.57453 9.19962 4.64227C9.08519 4.71 8.99069 4.80679 8.92571 4.92282C8.86074 5.03885 8.82759 5.16999 8.82964 5.30296C8.83168 5.43593 8.86884 5.56599 8.93735 5.67997L10.2859 7.42854C6.85735 9.15425 5.14307 11.44 5.14307 14.8685C5.14307 18 8.00021 19.4171 12.0002 19.4171Z" stroke="#6D6D6D" stroke-linecap="round" stroke-linejoin="round"/>
<path d="M10.8573 14.9258C10.9967 15.0914 11.1722 15.2227 11.3703 15.3099C11.5684 15.3971 11.7839 15.4377 12.0001 15.4287C12.3307 15.4512 12.657 15.3447 12.9107 15.1316C13.1643 14.9185 13.3254 14.6153 13.3601 14.2858C13.3254 13.9564 13.1643 13.6532 12.9107 13.4401C12.657 13.2269 12.3307 13.1204 12.0001 13.143C11.6696 13.1655 11.3432 13.059 11.0896 12.8459C10.836 12.6327 10.6749 12.3296 10.6401 12.0001C10.6721 11.6695 10.8324 11.3646 11.0867 11.1509C11.341 10.9372 11.669 10.8318 12.0001 10.8573C12.2126 10.8443 12.4253 10.8785 12.6229 10.9576C12.8205 11.0366 12.9981 11.1585 13.143 11.3144" stroke="#6D6D6D" stroke-linecap="round" stroke-linejoin="round"/>
</g>
<defs>
<clipPath id="clip0_173_2611">
<rect width="16" height="16" fill="white" transform="translate(4 4)"/>
</clipPath>
</defs>
</svg>
