<svg width="25" height="24" viewBox="0 0 25 24" fill="none" xmlns="http://www.w3.org/2000/svg">
<g clip-path="url(#clip0_359_4295)">
<path d="M24.4871 15.02C24.4273 13.6449 24.1882 12.1204 23.8295 10.6855C23.4708 9.31044 23.0224 8.02504 22.4843 7.03857C20.3918 3.36173 18.1199 3.92969 15.3996 4.64713C14.5327 4.85638 13.6061 5.09552 12.6495 5.1852H12.3505C11.394 5.09552 10.4673 4.85638 9.60038 4.64713C6.88012 3.95959 4.60825 3.36173 2.51573 7.06846C1.97766 8.05493 1.49937 9.34033 1.17055 10.7154C0.81183 12.1503 0.572686 13.6748 0.5129 15.0499C0.453114 16.5744 0.602579 17.6805 0.931402 18.4577C1.26023 19.1751 1.73851 19.6235 2.36627 19.8029C2.93424 19.9524 3.59188 19.8926 4.27942 19.5936C5.44525 19.1154 6.79044 18.099 8.10573 16.8734C9.03242 15.9766 10.7662 15.5282 12.5 15.5282C14.2338 15.5282 15.9676 15.9766 16.8943 16.8734C18.2096 18.099 19.5548 19.1154 20.7206 19.5936C21.4081 19.8627 22.0658 19.9524 22.6337 19.8029C23.2316 19.6235 23.7398 19.205 24.0686 18.4278C24.3974 17.6805 24.5469 16.5744 24.4871 15.02ZM23.0522 18.0093C22.8729 18.4278 22.6337 18.667 22.3348 18.7566C22.006 18.8463 21.5875 18.7865 21.1092 18.6072C20.0629 18.1887 18.8373 17.262 17.6416 16.1261C16.5057 14.9901 14.5028 14.4222 12.5 14.4222C10.4972 14.4222 8.49434 14.9901 7.32851 16.0663C6.1029 17.2022 4.87728 18.1588 3.86092 18.5474C3.38263 18.7267 2.96413 18.8164 2.63531 18.6969C2.33638 18.6072 2.09723 18.368 1.91787 17.9495C1.67873 17.3816 1.55916 16.4549 1.61894 15.0798C1.67873 13.7944 1.88798 12.3296 2.2467 10.9546C2.57552 9.66916 2.99402 8.47343 3.5022 7.57664C5.14632 4.61723 7.05947 5.09552 9.33135 5.69338C10.258 5.93253 11.2146 6.17167 12.2609 6.26135H12.7093C13.7854 6.17167 14.742 5.93253 15.6687 5.69338C17.9405 5.12541 19.8537 4.61723 21.4978 7.57664C22.006 8.47343 22.4245 9.63926 22.7533 10.9546C23.0821 12.3296 23.3213 13.7645 23.3811 15.0798C23.4409 16.4549 23.3213 17.3816 23.0522 18.0093Z" fill="#FFC300"/>
<path d="M9.74976 9.19066C9.45083 8.92162 9.09212 8.71237 8.67361 8.68248C8.64372 8.29387 8.46436 7.90526 8.19532 7.63622L8.16543 7.60633C7.83661 7.2775 7.4181 7.09814 6.93982 7.09814C6.46153 7.09814 6.01313 7.3074 5.7142 7.60633C5.44517 7.87536 5.23591 8.26397 5.20602 8.68248C4.78752 8.71237 4.4288 8.89173 4.12987 9.16076L4.09998 9.19066C3.77116 9.51948 3.5918 9.93798 3.5918 10.4163C3.5918 10.8946 3.80105 11.343 4.09998 11.6419C4.39891 11.9408 4.75763 12.1202 5.20602 12.1501C5.23591 12.5686 5.41527 12.9572 5.7142 13.2262C6.04303 13.555 6.46153 13.7344 6.93982 13.7344C7.4181 13.7344 7.8665 13.5251 8.16543 13.2262C8.43447 12.9273 8.64372 12.5686 8.67361 12.1501C9.09212 12.1202 9.48072 11.9408 9.74976 11.6419C10.0786 11.3131 10.2579 10.8946 10.2579 10.4163C10.2579 9.93798 10.0487 9.48959 9.74976 9.19066ZM9.00244 10.8647C8.88286 10.9842 8.7334 11.044 8.55404 11.044H8.13554C7.83661 11.044 7.56757 11.2832 7.56757 11.612V12.0006C7.56757 12.18 7.50778 12.3294 7.38821 12.449C7.26864 12.5686 7.11917 12.6284 6.93982 12.6284C6.76046 12.6284 6.61099 12.5686 6.49142 12.449C6.37185 12.3294 6.31206 12.18 6.31206 12.0006V11.5821C6.31206 11.2832 6.07292 11.0141 5.7441 11.0141H5.32559C5.14623 11.0141 4.99677 10.9543 4.8772 10.8348C4.78752 10.7451 4.69784 10.5956 4.69784 10.4163C4.69784 10.2369 4.75763 10.0874 4.8772 9.96788L4.90709 9.93798C5.02666 9.8483 5.17613 9.78852 5.32559 9.78852H5.7441C6.04303 9.78852 6.31206 9.54937 6.31206 9.22055V8.80205C6.31206 8.62269 6.37185 8.47322 6.49142 8.35365C6.61099 8.23408 6.76046 8.17429 6.93982 8.17429C7.11917 8.17429 7.26864 8.23408 7.38821 8.35365L7.41811 8.38354C7.50778 8.50312 7.56757 8.65258 7.56757 8.80205V9.22055C7.56757 9.51948 7.80671 9.78852 8.13554 9.78852H8.55404C8.7334 9.78852 8.88286 9.8483 9.00244 9.96788C9.12201 10.0874 9.18179 10.2369 9.18179 10.4163C9.18179 10.5956 9.12201 10.7451 9.00244 10.8647Z" fill="#FFC300"/>
<path d="M17.7015 9.34056C18.2794 9.34056 18.7478 8.87213 18.7478 8.2943C18.7478 7.71647 18.2794 7.24805 17.7015 7.24805C17.1237 7.24805 16.6553 7.71647 16.6553 8.2943C16.6553 8.87213 17.1237 9.34056 17.7015 9.34056Z" fill="#FFC300"/>
<path d="M17.7015 13.5852C18.2794 13.5852 18.7478 13.1168 18.7478 12.5389C18.7478 11.9611 18.2794 11.4927 17.7015 11.4927C17.1237 11.4927 16.6553 11.9611 16.6553 12.5389C16.6553 13.1168 17.1237 13.5852 17.7015 13.5852Z" fill="#FFC300"/>
<path d="M15.579 11.4626C16.1568 11.4626 16.6252 10.9942 16.6252 10.4164C16.6252 9.83854 16.1568 9.37012 15.579 9.37012C15.0011 9.37012 14.5327 9.83854 14.5327 10.4164C14.5327 10.9942 15.0011 11.4626 15.579 11.4626Z" fill="#FFC300"/>
<path d="M19.8236 11.4626C20.4014 11.4626 20.8699 10.9942 20.8699 10.4164C20.8699 9.83854 20.4014 9.37012 19.8236 9.37012C19.2458 9.37012 18.7773 9.83854 18.7773 10.4164C18.7773 10.9942 19.2458 11.4626 19.8236 11.4626Z" fill="#FFC300"/>
</g>
<defs>
<clipPath id="clip0_359_4295">
<rect width="24" height="24" fill="white" transform="translate(0.5)"/>
</clipPath>
</defs>
</svg>
