<svg width="36" height="24" viewBox="0 0 36 24" fill="none" xmlns="http://www.w3.org/2000/svg">
<rect width="36" height="24" rx="12" fill="#FF3030"/>
<rect x="4.5" y="10.5" width="4" height="4" rx="2" fill="white"/>
<path d="M13.5024 16V9H14.3424V15.33H17.6024V16H13.5024ZM18.8252 16V10.78H19.6652V16H18.8252ZM19.2452 9.77C19.0785 9.77 18.9385 9.71667 18.8252 9.61C18.7185 9.49667 18.6652 9.35667 18.6652 9.19C18.6652 9.02333 18.7185 8.89 18.8252 8.79C18.9385 8.68333 19.0785 8.63 19.2452 8.63C19.4052 8.63 19.5418 8.68333 19.6552 8.79C19.7685 8.89 19.8252 9.02333 19.8252 9.19C19.8252 9.35667 19.7685 9.49667 19.6552 9.61C19.5418 9.71667 19.4052 9.77 19.2452 9.77ZM22.6673 16L20.6873 10.78H21.5773L23.1573 15.19L24.7573 10.78H25.6173L23.6373 16H22.6673ZM28.4935 16.12C28.0268 16.12 27.6135 16.0067 27.2535 15.78C26.8935 15.5533 26.6102 15.2367 26.4035 14.83C26.2035 14.4167 26.1035 13.9367 26.1035 13.39C26.1035 12.8433 26.2035 12.3667 26.4035 11.96C26.6102 11.5467 26.8935 11.2267 27.2535 11C27.6202 10.7733 28.0402 10.66 28.5135 10.66C29.0202 10.66 29.4435 10.7733 29.7835 11C30.1235 11.2267 30.3802 11.53 30.5535 11.91C30.7335 12.2833 30.8235 12.6933 30.8235 13.14C30.8235 13.2067 30.8235 13.2733 30.8235 13.34C30.8235 13.4067 30.8202 13.4867 30.8135 13.58H26.7335V12.93H30.0035C29.9902 12.43 29.8402 12.0467 29.5535 11.78C29.2735 11.5067 28.9202 11.37 28.4935 11.37C28.2135 11.37 27.9535 11.44 27.7135 11.58C27.4802 11.7133 27.2902 11.9133 27.1435 12.18C26.9968 12.44 26.9235 12.7667 26.9235 13.16V13.44C26.9235 13.8733 26.9968 14.2367 27.1435 14.53C27.2902 14.8233 27.4802 15.0433 27.7135 15.19C27.9535 15.3367 28.2135 15.41 28.4935 15.41C28.8668 15.41 29.1602 15.3367 29.3735 15.19C29.5935 15.0433 29.7535 14.8367 29.8535 14.57H30.6835C30.6035 14.8633 30.4635 15.13 30.2635 15.37C30.0702 15.6033 29.8235 15.7867 29.5235 15.92C29.2302 16.0533 28.8868 16.12 28.4935 16.12Z" fill="white"/>
</svg>
