<svg width="358" height="239" viewBox="0 0 358 239" fill="none" xmlns="http://www.w3.org/2000/svg">
<path d="M345.112 121.283L342.148 116.116L337.513 116.8L333.694 111.981L335.666 107.201L330.496 103.764L326.634 107.66L321.551 106.771L319.493 100.782L313.312 101.437L312.964 106.671L308.357 108.984L303.484 105.528L298.539 109.137L301.107 114.677L298.166 119.118L292.825 118.831L291.426 125.432L296.51 127.392L296.949 132.937L291.698 135.972L294.219 141.708L299.675 140.857L303.288 145.035L301.379 150.245L306.376 153.778L310.276 149.552L315.689 151.02L317.374 156.612L323.388 156.206L324.162 151.182L329.322 148.218L333.541 151.588L338.878 147.607L336.171 142.922L338.802 138.204L344.215 138.601L345.871 132.459L341.226 129.945L340.611 124.347L345.112 121.283ZM324.157 139.356C322.072 140.555 319.678 141.108 317.279 140.944C314.88 140.78 312.583 139.908 310.679 138.438C308.775 136.967 307.35 134.964 306.583 132.682C305.815 130.4 305.741 127.941 306.369 125.617C306.997 123.293 308.3 121.207 310.112 119.624C311.923 118.041 314.163 117.031 316.548 116.723C318.933 116.415 321.355 116.821 323.509 117.892C325.663 118.962 327.452 120.648 328.649 122.736C330.253 125.537 330.681 128.861 329.838 131.977C328.996 135.094 326.953 137.748 324.157 139.356Z" fill="#F5F5F5"/>
<path d="M63.4136 182.271C72.5593 174.355 73.4758 161.33 71.9006 149.862C71.6381 147.95 71.6381 145.905 70.5545 144.313C69.471 142.721 67.2132 141.794 65.5855 142.779C64.2298 143.596 63.7812 145.321 63.1272 146.775C62.2535 148.719 60.8486 150.376 59.0746 151.555C57.9147 152.315 56.4445 152.86 55.1701 152.319C53.423 151.574 52.9934 149.308 52.7834 147.396L51.7762 136.708C51.5901 134.796 51.3944 132.85 50.6163 131.096C49.8382 129.342 48.349 127.798 46.4826 127.478C44.6162 127.157 42.4825 128.434 42.2916 130.346C42.2105 131.144 42.4539 131.933 42.4825 132.736C42.5112 133.539 42.2343 134.452 41.5279 134.748C40.8214 135.044 39.9718 134.59 39.3417 134.088C37.1746 132.363 35.5851 130.016 34.091 127.674C32.597 125.332 31.1172 122.932 29.1124 121.01C27.1076 119.089 24.468 117.664 21.7185 117.808C18.9691 117.951 16.234 119.925 15.8235 122.683C15.413 125.441 17.2555 128.013 19.1887 130.016C22.0535 132.99 25.3334 135.532 28.9263 137.564C29.5707 137.927 30.2676 138.324 30.5731 138.998C31.1172 140.226 30.0432 141.617 28.8308 142.167C27.4561 142.783 25.9 142.798 24.4298 143.123C22.9596 143.448 21.4178 144.275 21.0025 145.737C20.4202 147.774 22.2627 149.647 24.005 150.823C27.5016 153.177 31.3769 154.911 35.461 155.947C36.893 156.315 38.4395 156.617 39.671 157.487C40.9026 158.357 41.7618 160.001 41.2176 161.416C40.6734 162.831 38.9646 163.447 37.4658 163.328C35.9669 163.208 34.5731 162.544 33.1173 162.161C30.3917 161.44 27.0265 161.97 25.5802 164.413C24.6255 166.019 24.7496 168.103 25.4895 169.824C26.2293 171.545 27.5181 172.959 28.869 174.245C33.5755 178.748 39.3703 182.166 45.6616 183.648C51.9528 185.129 57.6522 185.12 63.4661 182.285" fill="#F5F5F5"/>
<path d="M64.4397 190.784C63.3594 185.504 61.7737 180.34 59.7046 175.364C57.1517 169.294 54.2527 163.376 51.0219 157.64C50.1722 156.11 49.3337 154.601 48.5063 153.113C47.6805 151.626 46.8595 150.154 45.9669 148.763C44.248 146.099 42.3836 143.531 40.3821 141.072C38.4728 138.711 36.6016 136.536 34.826 134.519C33.0503 132.502 31.3462 130.657 29.7328 129.06C27.1919 126.491 24.4531 124.125 21.5418 121.986C20.5107 121.235 19.6945 120.676 19.1551 120.303C18.8878 120.126 18.6778 119.988 18.5155 119.887C18.4463 119.836 18.3729 119.792 18.2959 119.753C18.3558 119.816 18.4232 119.87 18.4964 119.916L19.1169 120.36C19.6611 120.752 20.463 121.316 21.5036 122.1C24.3819 124.269 27.0944 126.649 29.6182 129.223C31.2173 130.843 32.9023 132.698 34.6684 134.715C36.4346 136.732 38.3057 138.916 40.1912 141.278C42.1781 143.734 44.0297 146.296 45.7378 148.954C46.6209 150.336 47.4371 151.799 48.2677 153.285C49.0982 154.772 49.9288 156.287 50.7784 157.812C54.0019 163.54 56.9023 169.445 59.4659 175.498C61.5348 180.451 63.133 185.588 64.2392 190.842" fill="#E0E0E0"/>
<path d="M45.8621 148.763C45.9281 148.489 45.9634 148.208 45.9672 147.927C46.0149 147.391 46.0531 146.607 46.0913 145.642C46.1629 143.73 46.1724 141.048 46.1772 138.104C46.182 135.159 46.2249 132.501 46.3299 130.58C46.3777 129.624 46.4254 128.84 46.4636 128.3C46.496 128.022 46.496 127.741 46.4636 127.463C46.3821 127.731 46.3293 128.007 46.3061 128.286C46.2249 128.821 46.139 129.6 46.0626 130.561C45.8908 132.473 45.8049 135.159 45.8049 138.104C45.8049 141.048 45.8049 143.629 45.8049 145.637C45.8049 146.545 45.8049 147.31 45.8049 147.922C45.7948 148.203 45.814 148.485 45.8621 148.763Z" fill="#E0E0E0"/>
<path d="M20.8687 146.703C21.1987 146.739 21.5315 146.739 21.8615 146.703C22.4964 146.703 23.4128 146.674 24.5489 146.703C26.821 146.703 29.9571 146.842 33.413 147.128C36.8689 147.415 39.9811 147.826 42.2245 148.18C43.3511 148.352 44.258 148.51 44.8833 148.62C45.1969 148.694 45.5163 148.74 45.838 148.758C45.5301 148.634 45.2102 148.543 44.8833 148.486C44.2628 148.333 43.3606 148.132 42.2389 147.932C39.9954 147.511 36.8784 147.071 33.413 146.775C30.4562 146.515 27.4881 146.406 24.5203 146.45C23.3794 146.45 22.4582 146.526 21.8233 146.579C21.5022 146.594 21.1829 146.635 20.8687 146.703Z" fill="#E0E0E0"/>
<path d="M59.3564 174.948C59.4151 174.849 59.4616 174.743 59.4949 174.632C59.5808 174.379 59.6906 174.073 59.8195 173.7C60.1011 172.888 60.4782 171.707 60.9221 170.24C61.8195 167.305 62.9221 163.208 64.082 158.677C65.242 154.145 66.3112 150.044 67.1418 147.095C67.5523 145.661 67.8864 144.48 68.1346 143.605C68.2444 143.223 68.3303 142.908 68.4019 142.649C68.4428 142.541 68.4654 142.426 68.4687 142.31C68.4128 142.412 68.368 142.519 68.3351 142.63C68.2444 142.884 68.1346 143.19 68.0057 143.562C67.7241 144.37 67.347 145.556 66.9031 147.023C66.0105 149.958 64.9031 154.05 63.7431 158.586C62.5832 163.122 61.514 167.219 60.6834 170.168C60.2777 171.602 59.9388 172.783 59.6906 173.657L59.428 174.613C59.3912 174.722 59.3672 174.834 59.3564 174.948Z" fill="#E0E0E0"/>
<path d="M25.6899 167.778C25.7954 167.829 25.9082 167.862 26.0241 167.878L27.0074 168.098L30.6112 168.872C33.6566 169.523 37.8524 170.474 42.4825 171.53C47.1127 172.587 51.3275 173.495 54.3872 174.083C55.9147 174.379 57.1558 174.608 58.015 174.747L59.0078 174.9C59.1221 174.926 59.2393 174.935 59.3563 174.929C59.2479 174.881 59.134 174.848 59.0174 174.828L58.0627 174.608L54.4159 173.853C51.3705 173.198 47.1747 172.252 42.5398 171.196C37.9049 170.139 33.7187 169.212 30.659 168.638C29.1315 168.342 27.8904 168.117 27.0312 167.979L26.0384 167.821C25.9242 167.794 25.8073 167.779 25.6899 167.778Z" fill="#E0E0E0"/>
<path d="M280.151 102.913C280.639 102.577 281.101 102.206 281.536 101.804C282.031 101.321 282.451 100.765 282.782 100.155C283.592 98.7057 283.872 97.0187 283.574 95.3846C283.276 93.7505 282.419 92.2716 281.149 91.2023C280.629 90.7546 280.043 90.3902 279.412 90.122C278.759 89.8305 278.065 89.6449 277.354 89.5723C275.853 89.3995 274.335 89.7128 273.025 90.4663C271.714 91.2198 270.678 92.374 270.07 93.7596C269.501 95.0483 269.323 96.4764 269.559 97.8656C269.778 99.1214 270.326 100.296 271.149 101.269C271.805 102.041 272.617 102.665 273.531 103.1C274.445 103.536 275.44 103.774 276.452 103.798C277.145 103.82 277.837 103.738 278.505 103.554C279.073 103.384 279.627 103.17 280.161 102.913C280.161 102.913 280.132 102.942 280.066 102.98L279.76 103.148C279.599 103.243 279.43 103.323 279.254 103.387C279.021 103.491 278.78 103.577 278.533 103.645C277.859 103.85 277.157 103.948 276.452 103.936C275.414 103.929 274.39 103.699 273.448 103.262C272.506 102.825 271.668 102.191 270.991 101.403C270.137 100.406 269.565 99.1975 269.335 97.9039C269.207 97.2069 269.186 96.4944 269.273 95.7911C269.347 95.0556 269.541 94.3372 269.846 93.664C270.472 92.228 271.543 91.0318 272.9 90.252C274.257 89.4721 275.829 89.1501 277.383 89.3333C278.826 89.4975 280.188 90.0864 281.297 91.0255C282.298 91.8767 283.053 92.9809 283.483 94.2233C283.818 95.2065 283.941 96.2497 283.843 97.2838C283.745 98.318 283.429 99.3195 282.915 100.222C282.57 100.837 282.131 101.394 281.612 101.871C281.43 102.047 281.234 102.206 281.025 102.349C280.877 102.471 280.717 102.576 280.548 102.665L280.252 102.842C280.194 102.899 280.156 102.918 280.151 102.913Z" fill="#E0E0E0"/>
<path d="M292.605 92.168L292.443 92.2875L291.965 92.6364L289.975 94.0131V93.9748C290.08 94.8783 290.209 95.9968 290.357 97.3208L290.328 97.2778L293.097 98.7692H293.14V98.817C292.849 99.9164 292.519 101.15 292.185 102.469V102.531H292.128L288.911 102.302L288.987 102.259L287.354 105.064V104.978C287.856 105.844 288.4 106.795 288.963 107.775L289.006 107.846L288.939 107.894L285.77 110.284L285.712 110.327L285.65 110.279L283.14 108.277H283.254L280.19 110.045L280.242 109.969C280.104 110.891 279.946 111.914 279.765 112.956V113.042H279.717L276.142 113.291H276.051L276.023 113.205L275.02 109.859L275.101 109.94L271.884 109.07L272.003 109.037L269.684 111.546L269.612 111.627L269.526 111.565L266.552 109.467L266.476 109.409L266.509 109.323C266.863 108.367 267.244 107.292 267.631 106.226L267.655 106.35L265.507 103.865L265.617 103.908L262.376 104.414H262.28L262.242 104.324C261.765 103.248 261.254 102.087 260.743 100.925L260.695 100.82L260.796 100.762L260.862 100.724C261.889 100.136 262.915 99.5483 263.927 98.9604L263.865 99.0799C263.779 97.9709 263.693 96.8715 263.607 95.7817L263.688 95.8868L260.624 94.7588L260.528 94.7205V94.6201C260.812 93.2977 261.088 91.9896 261.359 90.6958V90.5954H261.464L264.638 90.7627L264.533 90.82L266.285 88.1815V88.2962C265.765 87.1777 265.259 86.0831 264.757 84.998L264.719 84.912L264.796 84.8594L267.736 82.7179L267.803 82.6701L267.87 82.7132L270.762 84.7733H270.653L273.388 83.3824L273.33 83.4732C273.402 82.4025 273.474 81.37 273.54 80.3566V80.2706H273.626L277.297 79.8882H277.378V79.9647L278.6 83.5258L278.529 83.4636L281.55 83.999H281.469L283.77 81.6902L283.817 81.6424L283.875 81.6759L286.944 83.7265L286.992 83.76V83.8173C286.548 84.8881 286.166 85.8058 285.813 86.6853V86.6184L288.08 89.4864H288.032L290.791 89.0945H290.815V89.1184L292.128 91.4558L292.443 92.0246C292.514 92.1489 292.543 92.2062 292.543 92.2062C292.543 92.2062 292.5 92.1441 292.424 92.0198C292.347 91.8955 292.238 91.6996 292.09 91.4558L290.748 89.1566H290.786L288.032 89.5725H288.004V89.5486L285.717 86.6806V86.6519V86.6136C286.07 85.758 286.443 84.8355 286.882 83.7456L286.911 83.8317L283.832 81.8002H283.932C283.216 82.5315 282.467 83.2915 281.641 84.1233L281.612 84.1567H281.564L278.581 83.65H278.529V83.5975C278.132 82.4598 277.727 81.2792 277.297 80.0364L277.402 80.1033L273.727 80.4952L273.822 80.3996C273.755 81.413 273.688 82.4455 273.617 83.5162V83.5736L273.564 83.6022L270.829 84.998L270.767 85.0267L270.715 84.9884L267.784 82.9044H267.917L264.982 85.0506L265.02 84.9072L266.547 88.2006L266.576 88.2627L266.538 88.3153L264.791 90.9587L264.753 91.016H264.686L261.507 90.8487L261.631 90.7531C261.357 92.0437 261.082 93.3519 260.805 94.6775L260.729 94.5341L263.75 95.7004L263.822 95.7291V95.8056C263.908 96.8954 263.994 97.9948 264.08 99.1038V99.1803L264.008 99.2233L260.944 100.982L260.877 101.025L260.929 100.868L262.423 104.266L262.294 104.194L265.536 103.693H265.602L265.65 103.74C266.39 104.596 267.12 105.447 267.798 106.226L267.846 106.283V106.35C267.454 107.416 267.073 108.473 266.719 109.443L266.676 109.304L269.645 111.408H269.488L271.808 108.898L271.855 108.845H271.927L275.144 109.72H275.206V109.782C275.55 110.939 275.894 112.077 276.204 113.128L276.089 113.047L279.665 112.808L279.564 112.904C279.727 111.862 279.884 110.839 280.042 109.916V109.864L280.085 109.84L283.154 108.081L283.211 108.047L283.268 108.09L285.774 110.098H285.655L288.829 107.736V107.856C288.266 106.9 287.722 105.944 287.23 105.055L287.206 105.012L287.23 104.969L288.796 102.168L288.825 102.125H288.872L292.09 102.369L292.013 102.421C292.371 101.102 292.71 99.8734 293.011 98.774L293.039 98.8457L290.285 97.34V97.3113L289.932 93.9653V93.9414L291.932 92.6125L292.448 92.2732L292.605 92.168Z" fill="#E0E0E0"/>
<path d="M331.938 191.998C331.938 192.07 263.942 192.123 180.084 192.123C96.2258 192.123 28.2153 192.07 28.2153 191.998C28.2153 191.927 96.1971 191.874 180.084 191.874C263.97 191.874 331.938 191.931 331.938 191.998Z" fill="#263238"/>
<path d="M319.102 126.139L292.848 191.898H219.096L242.533 125.236C242.616 125 242.769 124.796 242.973 124.652C243.176 124.507 243.419 124.429 243.669 124.428L317.98 124.476C318.178 124.476 318.373 124.524 318.548 124.617C318.723 124.71 318.873 124.844 318.983 125.009C319.094 125.173 319.163 125.362 319.184 125.559C319.204 125.756 319.176 125.956 319.102 126.139Z" fill="#263238"/>
<path d="M315.04 128.037L290.939 186.951C290.887 187.077 290.798 187.185 290.684 187.261C290.571 187.337 290.437 187.377 290.3 187.376H223.144C223.035 187.379 222.927 187.354 222.829 187.306C222.732 187.257 222.648 187.186 222.584 187.097C222.52 187.009 222.478 186.906 222.463 186.799C222.447 186.691 222.458 186.58 222.495 186.478L243.865 127.564C243.913 127.432 244.001 127.318 244.116 127.237C244.231 127.157 244.369 127.114 244.509 127.115H314.419C314.529 127.116 314.636 127.143 314.733 127.195C314.829 127.247 314.911 127.321 314.973 127.412C315.034 127.503 315.072 127.607 315.084 127.716C315.095 127.825 315.08 127.935 315.04 128.037Z" fill="#455A64"/>
<path d="M292.834 192.003H292.18H192.642V187.376H290.114L292.834 192.003Z" fill="#263238"/>
<path d="M216.762 128.692C216.762 128.692 214.743 152.726 210.394 153.897C198.556 157.08 185.014 154.724 180.26 153.787C179.725 153.309 179.11 152.774 178.413 152.085C177.823 151.486 177.338 150.791 176.981 150.03C176.486 149.098 176.122 148.102 175.897 147.071C175.783 146.115 174.585 145.78 174.16 146.55C173.735 147.32 173.558 150.259 175.153 152.936C175.223 153.105 175.255 153.286 175.248 153.469C175.241 153.651 175.195 153.83 175.112 153.992C175.03 154.155 174.913 154.298 174.77 154.411C174.627 154.524 174.461 154.605 174.284 154.647C172.274 155.393 165.191 157.597 164.045 158.137C163.028 158.615 162.045 159.485 163.114 159.662C164.183 159.838 170.036 158.992 170.036 158.992C170.036 158.992 162.346 159.948 162.537 161.057C162.666 161.827 164.737 162.195 169.759 161.057C169.759 161.057 163.429 161.884 162.771 162.549C161.277 164.05 168.9 163.127 168.9 163.127C163.563 163.82 163.62 163.543 163.563 164.274C163.52 164.824 164.728 165.044 167.658 165.077C170.045 165.106 172.489 165.613 176.107 165.856C176.107 165.856 221.86 178.815 228.137 158.653C231.53 147.783 231.55 143.649 232.724 136.526" fill="#FFBE9D"/>
<path d="M172.103 162.788C172.103 162.922 170.494 163.204 168.465 163.414C166.437 163.624 164.785 163.691 164.78 163.553C164.776 163.414 166.398 163.137 168.418 162.926C170.437 162.716 172.083 162.654 172.103 162.788Z" fill="#A36957"/>
<path d="M172.055 160.708C172.055 160.842 170.355 161.239 168.236 161.593C166.117 161.946 164.341 162.128 164.317 161.999C164.293 161.87 166.012 161.468 168.136 161.11C170.26 160.751 172.031 160.574 172.055 160.708Z" fill="#A36957"/>
<path d="M171.988 158.548C172.012 158.682 170.393 159.083 168.374 159.446C166.355 159.81 164.694 159.996 164.67 159.867C164.646 159.738 166.264 159.327 168.284 158.964C170.303 158.6 171.964 158.414 171.988 158.548Z" fill="#A36957"/>
<path d="M276.137 169.714L279.111 187.06H232.719L234.495 173.581L276.137 169.714Z" fill="#263238"/>
<path d="M221.483 110.136C221.483 110.136 214.738 130.418 215.172 131.226L230.013 134.672L221.483 110.136Z" fill="#FDC111"/>
<path opacity="0.2" d="M221.483 110.136C221.483 110.136 214.738 130.418 215.172 131.226L230.013 134.672L221.483 110.136Z" fill="black"/>
<path d="M234.175 148.233L232.743 177.262L277.56 172.18L270.548 144.122C270.548 144.122 265.727 111.589 256.939 107.985C253.893 106.801 250.78 105.797 247.617 104.978C242.019 103.387 236.156 102.951 230.385 103.697L229.483 103.817C227.692 104.014 225.993 104.711 224.579 105.828C223.164 106.946 222.092 108.438 221.483 110.136C221.483 110.136 221.325 120.126 224.39 126.742L234.175 148.233Z" fill="#FDC111"/>
<path d="M244.786 186.511C244.719 186.511 244.619 184.154 244.567 181.253C244.514 178.351 244.524 175.995 244.567 175.995C244.61 175.995 244.739 178.356 244.791 181.253C244.844 184.149 244.872 186.511 244.786 186.511Z" fill="#455A64"/>
<path d="M247.258 177.295C247.258 177.295 247.306 177.219 247.454 177.166C247.588 177.129 247.728 177.123 247.864 177.15C248.001 177.177 248.128 177.236 248.238 177.321C248.347 177.407 248.434 177.517 248.493 177.643C248.552 177.769 248.58 177.907 248.576 178.046C248.571 178.256 248.502 178.461 248.378 178.631C248.255 178.802 248.082 178.931 247.884 179.002C247.685 179.059 247.475 179.059 247.276 179.003C247.077 178.948 246.898 178.838 246.757 178.686C246.646 178.565 246.564 178.421 246.517 178.263C246.47 178.106 246.459 177.94 246.485 177.778C246.585 177.224 246.924 177.037 246.929 177.066C246.791 177.289 246.7 177.538 246.662 177.797C246.65 177.943 246.673 178.09 246.73 178.225C246.786 178.36 246.874 178.479 246.987 178.573C247.099 178.667 247.232 178.732 247.375 178.763C247.518 178.795 247.666 178.791 247.807 178.753C247.956 178.698 248.086 178.602 248.182 178.476C248.278 178.35 248.337 178.199 248.352 178.041C248.36 177.911 248.332 177.781 248.27 177.666C248.209 177.551 248.116 177.456 248.003 177.391C247.776 177.265 247.51 177.23 247.258 177.295Z" fill="#455A64"/>
<path d="M276.877 180.134C276.823 180.188 276.762 180.234 276.696 180.273C276.523 180.402 276.343 180.522 276.156 180.631C275.472 181.044 274.746 181.382 273.989 181.64C271.481 182.519 268.754 182.553 266.224 181.736C263.695 180.918 261.502 179.295 259.98 177.113C259.518 176.464 259.128 175.767 258.815 175.034C258.696 174.776 258.634 174.556 258.581 174.427C258.529 174.298 258.514 174.212 258.524 174.207C258.533 174.202 258.662 174.489 258.901 174.991C259.758 176.756 261.005 178.302 262.548 179.513C264.804 181.303 267.63 182.216 270.505 182.085C271.671 182.04 272.826 181.834 273.937 181.473C274.687 181.232 275.412 180.922 276.104 180.545C276.353 180.392 276.611 180.255 276.877 180.134Z" fill="#455A64"/>
<path d="M240.69 123.037C240.528 123.227 240.349 123.401 240.156 123.558C239.653 124.014 239.118 124.435 238.557 124.816C237.719 125.405 236.754 125.787 235.74 125.929C234.488 126.001 233.239 125.749 232.113 125.198C230.905 124.667 229.821 124.051 228.771 123.668C227.852 123.294 226.856 123.153 225.869 123.257C225.205 123.332 224.572 123.577 224.031 123.97C223.659 124.256 223.502 124.476 223.482 124.448C223.508 124.388 223.544 124.333 223.587 124.285C223.701 124.138 223.831 124.003 223.974 123.883C224.511 123.446 225.159 123.166 225.845 123.076C226.861 122.942 227.894 123.069 228.848 123.444C229.931 123.821 231.024 124.438 232.213 124.959C233.302 125.497 234.509 125.748 235.721 125.69C236.704 125.565 237.644 125.211 238.466 124.658C239.031 124.293 239.576 123.897 240.098 123.472C240.284 123.312 240.482 123.167 240.69 123.037Z" fill="#FAFAFA"/>
<path d="M228.934 111.685C228.697 111.989 228.406 112.247 228.075 112.445C226.519 113.503 224.616 113.919 222.762 113.606C222.378 113.565 222.006 113.452 221.664 113.272C221.664 113.234 222.098 113.353 222.786 113.434C224.595 113.639 226.421 113.239 227.979 112.297C228.576 111.938 228.905 111.651 228.934 111.685Z" fill="#FAFAFA"/>
<path d="M269.455 139.031C269.358 139.126 269.254 139.214 269.144 139.294C268.825 139.523 268.481 139.715 268.118 139.868C266.754 140.361 265.286 140.494 263.856 140.255C262.875 140.108 261.903 139.907 260.944 139.652C259.847 139.356 258.731 139.14 257.603 139.007C256.365 138.901 255.118 138.992 253.908 139.275C252.601 139.589 251.324 140.014 250.089 140.546C247.545 141.603 245.139 142.755 242.762 143.247C240.661 143.687 238.485 143.631 236.409 143.084C235.018 142.736 233.652 142.297 232.318 141.77L231.23 141.335C231.103 141.289 230.98 141.233 230.862 141.168C230.994 141.197 231.124 141.237 231.249 141.287L232.352 141.679C233.692 142.17 235.059 142.582 236.447 142.912C238.501 143.426 240.644 143.464 242.714 143.022C245.053 142.544 247.44 141.378 249.994 140.312C251.237 139.776 252.524 139.349 253.841 139.036C255.077 138.751 256.349 138.663 257.612 138.778C258.741 138.919 259.858 139.144 260.953 139.452C261.897 139.711 262.853 139.921 263.817 140.083C265.223 140.334 266.668 140.229 268.023 139.777C268.528 139.586 269.009 139.336 269.455 139.031Z" fill="#FAFAFA"/>
<path d="M233.936 156.784C233.936 156.784 233.936 156.751 233.998 156.693L234.203 156.43C234.486 156.115 234.807 155.835 235.158 155.599C235.716 155.222 236.33 154.935 236.977 154.748C237.834 154.503 238.725 154.393 239.616 154.423C241.612 154.451 243.86 155.278 246.218 156.335C247.445 156.9 248.702 157.398 249.984 157.826C251.349 158.293 252.791 158.496 254.232 158.424C255.665 158.269 257.049 157.809 258.29 157.076C259.526 156.406 260.652 155.642 261.793 155.015C262.864 154.388 264.027 153.933 265.24 153.667C266.543 153.436 267.882 153.498 269.158 153.849C270.435 154.201 271.617 154.833 272.619 155.699C273.056 156.067 273.443 156.492 273.769 156.961C273.738 156.939 273.711 156.911 273.688 156.88C273.626 156.817 273.555 156.736 273.469 156.641C273.354 156.505 273.229 156.377 273.096 156.258C272.927 156.088 272.747 155.928 272.557 155.78C271.365 154.802 269.944 154.144 268.428 153.868C267.386 153.679 266.319 153.679 265.278 153.868C264.091 154.135 262.953 154.589 261.908 155.211C260.776 155.838 259.655 156.607 258.409 157.286C257.138 158.04 255.72 158.511 254.251 158.667C252.779 158.74 251.307 158.532 249.912 158.055C248.624 157.62 247.36 157.114 246.127 156.54C243.779 155.479 241.564 154.652 239.607 154.595C238.733 154.559 237.859 154.656 237.015 154.882C236.378 155.053 235.771 155.323 235.215 155.68C234.743 155.991 234.313 156.362 233.936 156.784Z" fill="#FAFAFA"/>
<path d="M274.414 172.118C274.189 171.574 273.906 171.057 273.569 170.574C272.587 169.297 271.227 168.364 269.684 167.907C268.633 167.569 267.531 167.422 266.428 167.472C265.162 167.532 263.908 167.759 262.7 168.146C261.361 168.573 260.053 169.094 258.786 169.704C257.459 170.321 256.104 171.014 254.672 171.64C253.293 172.271 251.853 172.759 250.376 173.098C248.981 173.375 247.556 173.468 246.137 173.375C243.739 173.176 241.383 172.627 239.144 171.745C237.235 171.024 235.736 170.311 234.7 169.833L233.521 169.26L233.215 169.102L233.115 169.04C233.155 169.046 233.194 169.059 233.23 169.078L233.54 169.212L234.743 169.747C235.784 170.225 237.292 170.88 239.206 171.583C241.432 172.431 243.767 172.958 246.142 173.146C247.539 173.233 248.941 173.137 250.314 172.859C251.791 172.529 253.23 172.048 254.61 171.425C256.042 170.804 257.388 170.115 258.724 169.513C260.002 168.901 261.321 168.38 262.672 167.955C263.898 167.567 265.172 167.345 266.457 167.295C267.59 167.253 268.722 167.415 269.798 167.773C271.365 168.255 272.736 169.228 273.708 170.55C273.959 170.913 274.169 171.302 274.333 171.712C274.376 171.846 274.414 171.951 274.443 172.037C274.436 172.065 274.426 172.092 274.414 172.118Z" fill="#FAFAFA"/>
<g opacity="0.2">
<path d="M240.256 176.301C244.805 176.119 249.359 174.599 252.839 171.659C257.612 167.634 259.956 161.315 260.476 155.092C260.996 148.868 259.889 142.664 258.786 136.498C254.526 142.474 251.065 148.982 248.49 155.857C246.8 160.369 245.316 165.297 241.573 168.323C240.237 169.403 238.643 170.211 237.597 171.573C236.552 172.936 236.328 175.182 237.717 176.195L238.948 176.597" fill="black"/>
</g>
<path d="M207.387 176.54C208.294 176.98 209.258 177.29 210.251 177.462C211.035 177.632 211.842 177.668 212.638 177.567C213.01 177.52 213.358 177.467 213.692 177.414C215.229 177.166 216.666 176.492 217.841 175.469C223.01 170.971 237.005 156.755 239.502 153.538C242.509 149.671 243.354 124.108 243.354 124.108L260.147 126.861C260.147 126.861 259.846 145.283 255.717 159.619C253.087 168.734 221.349 187.486 221.311 187.505C218.957 190.086 216.313 192.883 214.685 194.245C211.301 197.084 211.043 196.788 210.781 196.334C210.074 195.124 216.542 191.114 214.652 191.167C212.762 191.219 207.311 196.993 206.623 195.698C205.726 194.006 212.58 189.933 213.134 189.546C213.688 189.159 213.134 188.342 212.657 188.719C211.965 189.259 204.542 194.771 203.654 193.122C203.177 192.204 204.881 191.463 204.881 191.463C204.881 191.463 212.198 186.821 211.75 186.057C211.301 185.292 206.91 187.859 205.487 188.834C204.065 189.809 203.062 189.522 203.148 188.547C203.21 187.883 207.482 184.79 208.91 183.858C210.337 182.926 214.284 180.44 211.339 180.082C208.394 179.723 206.27 178.327 205.955 177.553C205.64 176.779 206.599 176.052 207.387 176.54Z" fill="#FFBE9D"/>
<path d="M249.679 107.45C251.259 107.125 252.896 107.204 254.439 107.679C255.981 108.155 257.379 109.011 258.504 110.169C260.461 112.21 262.428 115.628 262.261 121.044C261.932 131.612 261.101 135.217 261.101 135.217L240.409 134.5L241.22 116.742C241.22 116.742 242.819 108.898 249.679 107.45Z" fill="#FDC111"/>
<path opacity="0.2" d="M249.679 107.45C251.259 107.125 252.896 107.204 254.439 107.679C255.981 108.155 257.379 109.011 258.504 110.169C260.461 112.21 262.457 115.905 262.29 121.312C261.965 131.88 261.101 135.217 261.101 135.217L240.409 134.5L241.249 117.014C241.249 117.014 242.819 108.898 249.679 107.45Z" fill="black"/>
<path d="M261.884 129.06C261.884 129.084 261.645 128.85 261.187 128.525C260.525 128.081 259.789 127.758 259.015 127.569C257.867 127.281 256.672 127.241 255.507 127.449C254.094 127.782 252.721 128.271 251.416 128.907C250.092 129.547 248.713 130.067 247.297 130.461C246.121 130.738 244.904 130.796 243.707 130.633C242.899 130.527 242.118 130.267 241.406 129.868C241.215 129.757 241.033 129.631 240.862 129.49C240.799 129.447 240.741 129.395 240.69 129.337C240.69 129.313 240.948 129.519 241.449 129.782C242.166 130.137 242.937 130.366 243.731 130.461C244.906 130.595 246.096 130.518 247.244 130.236C248.644 129.835 250.006 129.313 251.316 128.678C252.641 128.036 254.034 127.547 255.469 127.22C256.664 127.019 257.889 127.081 259.058 127.401C259.846 127.612 260.586 127.97 261.24 128.458C261.411 128.592 261.571 128.741 261.717 128.902C261.778 128.949 261.834 129.002 261.884 129.06Z" fill="#FAFAFA"/>
<path d="M261.039 114.099C260.82 114.214 260.592 114.312 260.357 114.39C260.137 114.481 259.879 114.572 259.536 114.672C259.192 114.772 258.844 114.887 258.428 114.978C257.457 115.216 256.472 115.39 255.478 115.499C254.259 115.621 253.033 115.666 251.808 115.633C250.584 115.585 249.365 115.451 248.161 115.231C247.178 115.046 246.211 114.784 245.268 114.447C244.903 114.326 244.546 114.182 244.199 114.017C243.93 113.907 243.669 113.779 243.416 113.635C243.192 113.529 242.979 113.401 242.781 113.252C243.015 113.333 243.241 113.432 243.459 113.549C243.717 113.677 243.981 113.79 244.251 113.888C244.602 114.038 244.961 114.169 245.325 114.28C246.262 114.589 247.219 114.832 248.189 115.007C249.384 115.211 250.592 115.337 251.803 115.384C253.016 115.418 254.231 115.38 255.44 115.27C256.426 115.168 257.404 115.008 258.371 114.792C258.791 114.71 259.159 114.615 259.483 114.524C259.808 114.433 260.089 114.361 260.314 114.285C260.549 114.2 260.792 114.137 261.039 114.099Z" fill="#FAFAFA"/>
<path d="M238.762 84.4531C238.733 84.7241 238.782 84.9976 238.903 85.2417C239.024 85.4858 239.212 85.6903 239.445 85.8312C239.678 85.9722 239.946 86.0437 240.219 86.0375C240.491 86.0314 240.755 85.9477 240.982 85.7963C241.831 85.1844 241.745 83.8843 241.406 82.9283C241.067 81.9723 240.552 80.9111 240.829 79.9025C241.044 79.1329 241.678 78.5641 242.141 77.914C242.548 77.346 242.818 76.6913 242.93 76.0013C243.042 75.3113 242.992 74.6048 242.786 73.9371C242.56 73.2759 242.158 72.6893 241.623 72.241C241.087 71.7927 240.44 71.4998 239.75 71.3941C238.342 71.2316 236.738 71.9056 235.583 71.0834C234.743 70.4907 234.514 69.3339 233.817 68.5739C232.738 67.398 230.853 67.4793 229.32 67.9382C227.788 68.3971 226.28 69.1523 224.685 69.0089C223.358 68.8942 222.165 68.1628 220.867 67.7996C219.466 67.4122 217.98 67.4714 216.614 67.9688C215.249 68.4662 214.072 69.3772 213.248 70.5752C212.423 71.7731 211.991 73.1986 212.013 74.6534C212.035 76.1082 212.508 77.5202 213.368 78.6932C213.957 79.5628 214.835 80.196 215.845 80.4809" fill="#263238"/>
<path d="M236.423 114.443C234.355 114.823 232.221 114.366 230.488 113.172C228.756 111.979 227.567 110.146 227.182 108.076C226.705 105.614 226.342 103.535 226.342 103.535C226.342 103.535 219.95 103.631 218.809 97.407C217.669 91.1834 216.394 77.5126 216.394 77.5126L216.313 76.6857C222.996 72.3502 231.588 72.6609 238.633 76.3941L238.843 77.6799L242.886 105.729C243.111 107.731 242.569 109.744 241.37 111.362C240.17 112.979 238.402 114.08 236.423 114.443Z" fill="#FFBE9D"/>
<path d="M229.444 92.6748L225.449 94.6155C225.813 95.0207 226.305 95.289 226.842 95.3759C227.38 95.4629 227.931 95.3632 228.404 95.0935C230.151 94.0801 229.444 92.6748 229.444 92.6748Z" fill="white"/>
<path d="M226.313 103.449C229.198 103.011 231.887 101.725 234.041 99.7539C234.041 99.7539 232.886 104.567 226.576 105.064L226.313 103.449Z" fill="#EB996E"/>
<path d="M239.144 81.8765C239.273 81.8096 243.726 80.7389 243.874 86.1211C244.022 91.5034 238.542 89.8734 238.528 89.7205C238.514 89.5675 239.144 81.8765 239.144 81.8765Z" fill="#FFBE9D"/>
<path d="M240.141 87.7845C240.165 87.7845 240.237 87.8467 240.399 87.9184C240.625 88.0076 240.876 88.0076 241.101 87.9184C241.659 87.6937 242.113 86.776 242.113 85.8056C242.114 85.3431 242.013 84.8862 241.817 84.4672C241.761 84.301 241.666 84.1508 241.54 84.0293C241.413 83.9078 241.259 83.8186 241.091 83.7693C240.983 83.7443 240.87 83.7578 240.77 83.8075C240.671 83.8572 240.592 83.9401 240.547 84.0418C240.476 84.1948 240.514 84.2999 240.485 84.3095C240.457 84.319 240.366 84.2234 240.404 83.9988C240.433 83.8645 240.505 83.7435 240.609 83.6546C240.754 83.54 240.937 83.4868 241.12 83.5064C241.342 83.5432 241.552 83.6368 241.727 83.7784C241.903 83.9199 242.039 84.1045 242.122 84.3143C242.364 84.7742 242.49 85.286 242.49 85.8056C242.49 86.8907 241.955 87.9232 241.187 88.1669C241.044 88.2138 240.892 88.2274 240.743 88.2067C240.595 88.1859 240.452 88.1315 240.328 88.0474C240.156 87.9136 240.122 87.7941 240.141 87.7845Z" fill="#EB996E"/>
<path d="M215.315 80.3041C215.315 80.3041 219.339 81.6139 223.907 78.4877C226.91 76.4323 230.561 75.1417 231.478 75.6675C232.394 76.1933 233.024 79.4915 236.351 80.0365C236.351 80.0365 236.996 86.413 239.492 85.8394C241.989 85.2658 239.067 75.658 239.067 75.658L232.714 72.2737L225.793 71.9248L218.466 73.7747L214.59 76.9199L215.315 80.3041Z" fill="#263238"/>
<path d="M238.8 70.2661C237.849 70.4404 236.984 70.9283 236.342 71.6523C236.54 71.1813 236.89 70.7896 237.334 70.5387C237.779 70.2878 238.295 70.192 238.8 70.2661Z" fill="#263238"/>
<path d="M235.86 68.1484C236.163 68.7594 236.311 69.4359 236.29 70.1178C236.299 70.6064 236.218 71.0925 236.051 71.5518C235.997 71.7465 235.898 71.9253 235.76 72.0728C235.916 71.4365 236.01 70.7866 236.041 70.1321C236.022 69.0423 235.803 68.1676 235.86 68.1484Z" fill="#263238"/>
<path d="M218.304 86.5756C218.315 86.8187 218.421 87.0475 218.6 87.2122C218.779 87.3769 219.016 87.4642 219.258 87.4552C219.375 87.4577 219.491 87.437 219.599 87.3942C219.708 87.3515 219.807 87.2875 219.89 87.2061C219.974 87.1247 220.04 87.0274 220.086 86.92C220.131 86.8126 220.155 86.6971 220.156 86.5804C220.146 86.3425 220.043 86.1178 219.87 85.9544C219.697 85.791 219.468 85.7017 219.23 85.7057C219.111 85.6985 218.992 85.7157 218.88 85.7561C218.769 85.7966 218.666 85.8595 218.58 85.9409C218.493 86.0223 218.424 86.1206 218.376 86.2298C218.329 86.3389 218.304 86.4566 218.304 86.5756Z" fill="#263238"/>
<path d="M218.279 85.8728C218.399 85.9875 219.062 85.4378 220.046 85.3948C221.029 85.3518 221.774 85.8059 221.874 85.6768C221.922 85.6242 221.797 85.4139 221.473 85.1988C221.033 84.9263 220.519 84.7961 220.003 84.826C219.492 84.8482 219.001 85.0342 218.604 85.3565C218.313 85.6003 218.222 85.8202 218.279 85.8728Z" fill="#263238"/>
<path d="M227.974 86.069C227.995 86.3044 228.106 86.5226 228.284 86.6777C228.462 86.8328 228.693 86.9127 228.929 86.9007C229.046 86.8989 229.161 86.8736 229.268 86.8264C229.375 86.7793 229.471 86.7111 229.551 86.626C229.631 86.5409 229.693 86.4405 229.734 86.3309C229.775 86.2212 229.793 86.1045 229.788 85.9877C229.767 85.7523 229.656 85.5341 229.478 85.379C229.3 85.2239 229.069 85.1439 228.833 85.156C228.716 85.1571 228.601 85.1819 228.494 85.2289C228.387 85.2758 228.29 85.344 228.21 85.4292C228.129 85.5145 228.067 85.6151 228.027 85.725C227.986 85.835 227.968 85.9519 227.974 86.069Z" fill="#263238"/>
<path d="M227.688 85.3566C227.812 85.4617 228.452 84.8785 229.43 84.7925C230.409 84.7065 231.177 85.1176 231.273 84.9885C231.368 84.8594 231.182 84.7256 230.848 84.5105C230.395 84.2574 229.875 84.1506 229.359 84.2046C228.851 84.2553 228.372 84.4643 227.989 84.8021C227.726 85.0841 227.64 85.3088 227.688 85.3566Z" fill="#263238"/>
<path d="M224.858 92.9712C224.326 92.8603 223.782 92.8169 223.239 92.8421C222.986 92.8421 222.762 92.8135 222.686 92.6462C222.641 92.389 222.674 92.1242 222.781 91.8861C222.958 91.2599 223.144 90.6003 223.335 89.9072C224.099 87.0966 224.624 84.7926 224.509 84.7592C224.394 84.7257 223.688 86.9962 222.915 89.802C222.733 90.4951 222.557 91.1548 222.394 91.7905C222.265 92.1073 222.253 92.46 222.361 92.7848C222.407 92.8684 222.47 92.9409 222.547 92.9971C222.623 93.0533 222.712 93.0918 222.805 93.1098C222.948 93.128 223.092 93.128 223.235 93.1098C223.779 93.1347 224.325 93.0881 224.858 92.9712Z" fill="#263238"/>
<path d="M227.096 82.4266C227.22 82.6847 228.184 82.4648 229.344 82.4887C230.504 82.5126 231.468 82.7421 231.597 82.4887C231.654 82.3692 231.468 82.135 231.067 81.9151C230.537 81.6467 229.953 81.5028 229.359 81.4945C228.765 81.4862 228.177 81.6137 227.64 81.8673C227.234 82.0777 227.043 82.3071 227.096 82.4266Z" fill="#263238"/>
<path d="M218.141 83.239C218.337 83.4445 218.986 83.1481 219.798 83.0573C220.609 82.9665 221.311 83.0573 221.444 82.8136C221.502 82.6941 221.373 82.479 221.053 82.2973C220.624 82.0861 220.143 82.0062 219.669 82.0674C219.196 82.1286 218.75 82.3283 218.389 82.6415C218.141 82.8996 218.06 83.1386 218.141 83.239Z" fill="#263238"/>
<path d="M45.0078 127.956L70.5881 192.008H142.389L119.577 127.095C119.497 126.865 119.348 126.665 119.149 126.523C118.951 126.382 118.713 126.306 118.469 126.307L46.0961 126.354C45.9058 126.355 45.7185 126.403 45.5505 126.492C45.3825 126.582 45.2388 126.711 45.1317 126.869C45.0246 127.026 44.9574 127.208 44.9358 127.397C44.9142 127.586 44.9389 127.778 45.0078 127.956Z" fill="#263238"/>
<path d="M48.946 129.705L72.4356 187.065C72.4867 187.188 72.5729 187.292 72.6834 187.365C72.7939 187.439 72.9236 187.477 73.0561 187.477H138.451C138.556 187.478 138.661 187.453 138.755 187.406C138.849 187.358 138.931 187.289 138.992 187.203C139.054 187.117 139.094 187.018 139.11 186.913C139.125 186.808 139.115 186.702 139.081 186.602L118.269 129.242C118.221 129.114 118.134 129.004 118.022 128.926C117.909 128.848 117.776 128.807 117.639 128.807H49.5665C49.4585 128.805 49.3515 128.829 49.2553 128.878C49.159 128.928 49.0765 129 49.015 129.089C48.9535 129.178 48.915 129.281 48.903 129.389C48.891 129.496 48.9057 129.605 48.946 129.705Z" fill="#455A64"/>
<path d="M70.5879 192.003H71.2275H168.164V187.496H73.2419L70.5879 192.003Z" fill="#263238"/>
<path d="M182.819 129.624C182.819 129.624 184.609 127.296 183.401 124.614C182.193 121.933 178.943 118.878 178.943 118.878C177.988 118.635 179.248 113.233 179.797 111.441C180.346 109.648 179.73 108.678 178.752 109.051C178.088 109.318 176.279 114.753 175.778 116.531C175.506 117.487 174.995 119.399 174.375 120.461C173.859 121.326 173.267 121.598 172.671 120.241C171.358 117.248 169.248 115.432 168.375 115.332C167.501 115.231 167.043 116.474 167.792 117.153C168.532 117.969 169.157 118.882 169.649 119.868C170.079 120.643 170.376 121.485 170.527 122.358C170.656 123.114 170.747 123.792 170.819 124.395C170.982 125.897 170.969 127.413 170.78 128.912L152.747 150.183L148.823 135.781L148.46 134.672L132.985 140.436C132.508 140.556 136.326 151.837 138.713 158.844C139.3 160.56 140.246 162.13 141.488 163.449C142.73 164.768 144.24 165.805 145.916 166.492C148.55 167.572 151.469 167.734 154.206 166.954C156.942 166.174 159.338 164.496 161.009 162.19L180.26 134.203L179.845 133.921L180.236 134.098L182.819 129.624Z" fill="#B78876"/>
<path d="M180.403 120.27C180.374 120.451 180.323 120.627 180.251 120.796L179.74 122.196L178.962 124.28C178.832 124.709 178.634 125.114 178.375 125.48C178.205 125.681 177.97 125.814 177.711 125.858C177.573 125.876 177.432 125.858 177.303 125.806C177.173 125.754 177.059 125.67 176.971 125.561C176.803 125.356 176.705 125.1 176.695 124.835C176.689 124.593 176.716 124.352 176.776 124.118C176.885 123.673 177 123.252 177.115 122.851C177.348 122.048 177.592 121.34 177.816 120.752C178.041 120.165 178.241 119.691 178.389 119.371C178.453 119.201 178.54 119.04 178.647 118.893C178.609 119.072 178.553 119.246 178.48 119.414C178.36 119.744 178.184 120.222 178.002 120.815C177.821 121.407 177.573 122.12 177.353 122.918C177.243 123.319 177.134 123.74 177.033 124.175C176.959 124.377 176.934 124.593 176.96 124.807C176.986 125.021 177.062 125.225 177.181 125.403C177.242 125.48 177.321 125.541 177.411 125.578C177.501 125.616 177.6 125.63 177.697 125.619C177.897 125.583 178.079 125.48 178.212 125.327C178.454 124.982 178.641 124.601 178.766 124.199L179.597 122.153L180.179 120.781C180.236 120.603 180.311 120.432 180.403 120.27Z" fill="#AA6550"/>
<path d="M182.227 122.368C182.206 122.533 182.161 122.694 182.093 122.846C181.993 123.137 181.836 123.553 181.616 124.07C181.396 124.586 181.186 125.198 180.91 125.876C180.774 126.261 180.524 126.595 180.194 126.832C180.006 126.962 179.782 127.029 179.554 127.024C179.314 127.011 179.087 126.909 178.919 126.737C178.767 126.573 178.653 126.377 178.585 126.164C178.518 125.951 178.498 125.725 178.528 125.504C178.57 125.116 178.648 124.734 178.762 124.361C178.933 123.734 179.147 123.119 179.401 122.521C179.616 122.014 179.816 121.613 179.96 121.335C180.024 121.188 180.107 121.05 180.208 120.924C180.246 120.924 179.955 121.56 179.563 122.588C179.336 123.188 179.142 123.801 178.981 124.423C178.881 124.783 178.811 125.151 178.771 125.523C178.746 125.708 178.762 125.897 178.817 126.077C178.872 126.256 178.966 126.421 179.091 126.56C179.217 126.681 179.382 126.754 179.556 126.766C179.73 126.778 179.904 126.729 180.046 126.627C180.336 126.416 180.557 126.123 180.68 125.786L181.435 124.003C181.649 123.496 181.831 123.09 181.96 122.808C182.028 122.649 182.118 122.501 182.227 122.368Z" fill="#AA6550"/>
<path d="M183.229 124.495C183.152 124.96 183.03 125.416 182.866 125.857C182.737 126.278 182.594 126.765 182.389 127.315C182.294 127.637 182.076 127.908 181.783 128.07C181.694 128.108 181.599 128.128 181.503 128.128C181.407 128.128 181.312 128.108 181.224 128.07C181.047 127.999 180.896 127.874 180.795 127.712C180.627 127.404 180.56 127.051 180.604 126.703C180.64 125.871 180.853 125.056 181.229 124.313C181.385 124.004 181.573 123.711 181.787 123.439C181.94 123.247 182.04 123.152 182.055 123.161C182.069 123.171 181.74 123.606 181.386 124.39C181.185 124.849 181.036 125.331 180.943 125.824C180.89 126.113 180.858 126.405 180.847 126.698C180.815 126.996 180.869 127.297 181.005 127.564C181.066 127.682 181.17 127.774 181.295 127.82C181.421 127.866 181.559 127.863 181.682 127.812C181.914 127.677 182.084 127.458 182.16 127.2C182.341 126.679 182.513 126.201 182.67 125.766C182.82 125.327 183.007 124.902 183.229 124.495Z" fill="#AA6550"/>
<path d="M177.091 129.108C177.048 129.108 177.091 128.73 177.043 128.152C176.916 126.594 176.188 125.147 175.014 124.118C174.566 123.726 174.241 123.539 174.26 123.506C174.58 123.6 174.875 123.763 175.124 123.984C175.761 124.477 176.28 125.106 176.642 125.825C177.005 126.545 177.202 127.337 177.22 128.142C177.244 128.47 177.2 128.799 177.091 129.108Z" fill="#AA6550"/>
<path d="M76.8506 187.065L123.524 187.304L124.107 179.059L87.6956 162.835C84.5416 166.66 82.4476 171.247 81.6239 176.138L76.8506 187.065Z" fill="#263238"/>
<path d="M98.8893 171.196C98.7674 171.37 98.6265 171.531 98.4692 171.674C98.2989 171.857 98.1172 172.03 97.9251 172.19C97.6825 172.415 97.4275 172.625 97.1613 172.821C96.8465 173.069 96.5165 173.298 96.1733 173.505C95.786 173.753 95.3861 173.981 94.9751 174.188C93.0824 175.146 91.0039 175.68 88.8844 175.751C88.4249 175.776 87.9644 175.776 87.5049 175.751C87.1051 175.732 86.7067 175.691 86.3116 175.627C85.9899 175.584 85.6712 175.521 85.3569 175.441C85.1106 175.395 84.8681 175.331 84.6313 175.249C84.4244 175.202 84.224 175.13 84.0347 175.034C84.0347 174.982 84.9082 175.273 86.3545 175.455C86.7125 175.493 87.1087 175.541 87.5335 175.546C87.9583 175.55 88.4166 175.546 88.8939 175.546C90.9716 175.436 93.0058 174.907 94.8749 173.992C95.2997 173.772 95.7055 173.572 96.0682 173.342C96.4083 173.141 96.7381 172.922 97.0563 172.687C98.2353 171.827 98.8511 171.158 98.8893 171.196Z" fill="#455A64"/>
<path d="M111.582 186.372C111.735 185.832 111.923 185.301 112.145 184.785C112.541 183.753 113.037 182.438 113.577 180.99C114.116 179.541 114.646 178.236 115.052 177.204C115.236 176.672 115.459 176.154 115.72 175.655C115.593 176.205 115.424 176.743 115.214 177.266C114.87 178.222 114.379 179.594 113.811 181.09C113.243 182.586 112.703 183.906 112.293 184.862C112.088 185.34 111.916 185.722 111.787 185.985C111.736 186.122 111.667 186.253 111.582 186.372Z" fill="#455A64"/>
<path d="M111.844 175.273C111.576 175.398 111.356 175.608 111.218 175.87C111.153 176.005 111.122 176.154 111.13 176.304C111.137 176.454 111.182 176.599 111.261 176.726C111.353 176.886 111.49 177.015 111.656 177.095C111.822 177.175 112.008 177.202 112.19 177.174C112.372 177.145 112.54 177.062 112.674 176.935C112.807 176.808 112.899 176.644 112.937 176.463C112.973 176.318 112.972 176.166 112.934 176.021C112.895 175.877 112.821 175.744 112.717 175.636C112.505 175.432 112.235 175.299 111.944 175.254C111.944 175.254 112.03 175.206 112.197 175.216C112.439 175.239 112.666 175.343 112.841 175.512C112.979 175.637 113.081 175.796 113.136 175.973C113.191 176.151 113.199 176.34 113.156 176.521C113.114 176.749 113.001 176.959 112.835 177.12C112.668 177.282 112.455 177.388 112.226 177.424C111.997 177.46 111.762 177.423 111.554 177.32C111.346 177.216 111.176 177.05 111.066 176.846C110.971 176.686 110.921 176.503 110.921 176.317C110.921 176.132 110.971 175.949 111.066 175.789C111.181 175.576 111.364 175.408 111.586 175.311C111.744 175.249 111.839 175.259 111.844 175.273Z" fill="#455A64"/>
<path d="M143.41 117.296C143.41 117.296 150.236 137.401 149.849 138.223L136.04 142.014L143.41 117.296Z" fill="#FDC111"/>
<path opacity="0.2" d="M143.41 117.296C143.41 117.296 150.236 137.401 149.849 138.223L136.04 142.014L143.41 117.296Z" fill="black"/>
<path d="M132.221 150.608L127.863 169.121L125.032 179.48L87.6812 162.836L99.5381 143.716C99.5381 143.716 106.03 117.124 115.19 112.211C121.849 108.635 127.505 109.878 128.35 109.878L136.307 110.982C136.484 111.006 136.656 111.035 136.827 111.068C141.071 111.905 143.949 115.877 143.73 120.198C143.558 123.659 142.98 129.514 141.076 133.893C138.522 139.777 132.221 150.608 132.221 150.608Z" fill="#FDC111"/>
<path d="M126.417 175.326L126.145 175.201C125.878 175.078 125.62 174.937 125.371 174.781C124.412 174.18 123.574 173.405 122.899 172.496C121.813 171.056 121.175 169.326 121.066 167.525C120.997 166.396 121.216 165.267 121.701 164.246C121.964 163.686 122.334 163.183 122.789 162.764C123.277 162.321 123.879 162.025 124.527 161.908C125.061 161.854 125.6 161.906 126.115 162.061C126.629 162.216 127.107 162.471 127.523 162.812C127.938 163.152 128.282 163.572 128.536 164.046C128.789 164.52 128.947 165.039 128.999 165.574C129.058 166.351 128.917 167.129 128.589 167.835C128.25 168.576 127.751 169.232 127.129 169.757C126.507 170.282 125.776 170.662 124.99 170.871C123.314 171.293 121.544 171.124 119.978 170.393C118.357 169.613 116.938 168.468 115.834 167.047C115.251 166.332 114.724 165.573 114.259 164.776C113.773 163.963 113.409 163.082 113.18 162.162C112.947 161.221 112.936 160.239 113.147 159.294C113.36 158.314 113.884 157.431 114.641 156.775C115.038 156.451 115.497 156.21 115.989 156.067C116.481 155.924 116.996 155.882 117.505 155.943C118.02 156 118.512 156.186 118.937 156.483C119.352 156.793 119.681 157.204 119.892 157.678C120.292 158.637 120.311 159.712 119.944 160.685C119.567 161.622 118.933 162.434 118.116 163.027C116.545 164.118 114.729 164.802 112.83 165.018C110.931 165.234 109.008 164.975 107.233 164.265C105.576 163.553 104.15 162.395 103.113 160.919C102.114 159.52 101.551 157.857 101.495 156.139C101.473 155.314 101.606 154.491 101.887 153.715C102.16 152.956 102.633 152.286 103.257 151.775C103.873 151.292 104.623 151.013 105.405 150.976C105.783 150.953 106.162 151.004 106.52 151.128C106.878 151.252 107.208 151.446 107.491 151.698C108.015 152.205 108.341 152.883 108.407 153.61C108.482 154.295 108.38 154.988 108.111 155.623C107.557 156.782 106.567 157.674 105.357 158.103C104.307 158.501 103.195 158.705 102.073 158.706C100.28 158.729 98.5021 158.367 96.8603 157.644C95.8282 157.191 94.8642 156.596 93.9963 155.876C93.6956 155.627 93.4808 155.427 93.3424 155.288C93.2039 155.149 93.1323 155.073 93.1323 155.073C93.1323 155.073 93.2135 155.135 93.3614 155.269C93.5094 155.403 93.7242 155.599 94.0249 155.838C96.3126 157.654 99.1587 158.618 102.078 158.567C103.181 158.56 104.275 158.353 105.304 157.955C105.861 157.733 106.38 157.425 106.841 157.042C107.327 156.644 107.708 156.134 107.954 155.556C108.208 154.952 108.303 154.294 108.23 153.644C108.165 152.962 107.859 152.326 107.366 151.851C107.101 151.618 106.793 151.44 106.458 151.327C106.124 151.213 105.771 151.168 105.419 151.191C104.678 151.226 103.967 151.492 103.385 151.951C102.795 152.442 102.347 153.083 102.087 153.806C101.818 154.557 101.693 155.351 101.72 156.148C101.776 157.826 102.328 159.449 103.304 160.814C104.317 162.258 105.712 163.39 107.333 164.083C109.068 164.778 110.947 165.03 112.803 164.819C114.659 164.607 116.434 163.937 117.968 162.869C118.748 162.304 119.354 161.53 119.715 160.637C120.06 159.727 120.043 158.719 119.667 157.821C119.474 157.383 119.167 157.003 118.779 156.722C118.386 156.457 117.934 156.293 117.462 156.244C116.991 156.193 116.514 156.235 116.06 156.369C115.605 156.502 115.181 156.725 114.813 157.023C114.09 157.644 113.588 158.482 113.381 159.413C113.175 160.325 113.185 161.273 113.409 162.181C113.849 163.997 114.903 165.57 116.016 166.961C117.096 168.354 118.483 169.48 120.068 170.249C121.586 170.961 123.301 171.129 124.927 170.727C125.684 170.53 126.388 170.166 126.987 169.662C127.587 169.159 128.067 168.528 128.393 167.816C128.712 167.145 128.85 166.402 128.794 165.661C128.746 165.151 128.598 164.655 128.359 164.203C128.12 163.75 127.794 163.349 127.4 163.023C127.005 162.696 126.551 162.451 126.062 162.301C125.573 162.151 125.059 162.098 124.55 162.147C123.934 162.256 123.36 162.536 122.894 162.955C122.453 163.361 122.093 163.848 121.834 164.389C121.359 165.385 121.141 166.485 121.2 167.587C121.296 169.367 121.914 171.079 122.975 172.51C123.636 173.419 124.456 174.2 125.395 174.814C125.639 174.972 125.891 175.117 126.149 175.249L126.417 175.326Z" fill="#FAFAFA"/>
<path d="M137.625 139.614C137.625 139.614 137.591 139.581 137.534 139.509L137.281 139.194C136.972 138.774 136.705 138.326 136.484 137.855C135.685 136.092 135.474 134.117 135.882 132.224C136.147 130.909 136.755 129.687 137.644 128.682C137.91 128.409 138.237 128.202 138.598 128.08C138.79 128.018 138.992 127.996 139.192 128.015C139.392 128.034 139.586 128.094 139.763 128.19C140.119 128.393 140.403 128.702 140.575 129.074C140.739 129.451 140.826 129.858 140.827 130.269C140.812 131.981 140.215 133.637 139.133 134.963C138.573 135.668 137.888 136.264 137.114 136.722C136.314 137.206 135.403 137.476 134.469 137.506C133.522 137.514 132.605 137.174 131.892 136.55C131.202 135.957 130.682 135.192 130.383 134.332C130.102 133.511 129.965 132.648 129.978 131.78C129.963 130.95 130.066 130.123 130.283 129.323C130.398 128.931 130.583 128.564 130.827 128.238C131.071 127.904 131.427 127.669 131.83 127.578C132.225 127.501 132.635 127.574 132.98 127.784C133.301 127.984 133.574 128.251 133.782 128.568C133.976 128.861 134.123 129.184 134.216 129.524C134.308 129.855 134.358 130.197 134.364 130.542C134.378 131.185 134.271 131.826 134.049 132.43C133.667 133.466 133.038 134.393 132.216 135.131C131.605 135.682 130.942 136.172 130.235 136.593C129.653 136.942 129.19 137.186 128.875 137.348L128.517 137.53C128.477 137.555 128.433 137.574 128.388 137.587L128.503 137.511L128.851 137.305C129.157 137.129 129.615 136.87 130.183 136.512C130.875 136.08 131.524 135.582 132.121 135.025C132.913 134.296 133.517 133.386 133.882 132.372C134.09 131.787 134.189 131.168 134.173 130.546C134.166 130.222 134.114 129.901 134.021 129.59C133.936 129.264 133.797 128.954 133.61 128.673C133.422 128.381 133.169 128.137 132.87 127.961C132.574 127.777 132.219 127.714 131.877 127.784C131.171 127.927 130.722 128.654 130.498 129.38C130.295 130.16 130.199 130.964 130.212 131.77C130.203 132.611 130.339 133.447 130.613 134.241C130.896 135.058 131.39 135.785 132.045 136.349C132.715 136.934 133.576 137.252 134.465 137.243C135.355 137.211 136.222 136.953 136.985 136.493C137.734 136.05 138.397 135.475 138.942 134.796C139.987 133.514 140.57 131.915 140.594 130.26C140.594 129.88 140.516 129.504 140.364 129.156C140.214 128.825 139.966 128.55 139.653 128.367C139.502 128.285 139.336 128.234 139.164 128.216C138.993 128.199 138.82 128.216 138.656 128.266C138.331 128.381 138.037 128.569 137.796 128.816C136.92 129.792 136.315 130.98 136.04 132.263C135.8 133.314 135.754 134.402 135.906 135.47C136.017 136.278 136.235 137.067 136.555 137.817C136.77 138.285 137.02 138.736 137.305 139.165L137.539 139.495C137.605 139.576 137.629 139.609 137.625 139.614Z" fill="#FAFAFA"/>
<path d="M126.193 133.988C126.193 133.988 126.193 150.986 130.441 152.597C141.997 156.975 155.821 155.967 160.685 155.508C161.267 155.101 161.94 154.604 162.704 153.983L164.312 152.64C164.312 152.64 171.95 154.098 171.835 154.499C171.721 154.901 168.857 155.828 165.907 155.164C165.82 155.326 165.769 155.506 165.759 155.69C165.748 155.874 165.777 156.058 165.844 156.23C165.911 156.402 166.015 156.557 166.148 156.685C166.28 156.812 166.439 156.91 166.613 156.97C168.556 157.926 175.439 160.837 176.532 161.497C177.487 162.085 178.403 163.051 177.315 163.117C176.227 163.184 170.437 161.755 170.437 161.755C170.437 161.755 178.074 163.476 177.759 164.575C177.549 165.335 175.434 165.498 170.508 163.858C170.508 163.858 176.776 165.321 177.372 166.057C178.723 167.711 171.167 166.019 171.167 166.019C176.451 167.252 176.418 166.975 176.418 167.706C176.418 168.261 175.172 168.361 172.231 168.103C169.845 167.893 167.329 168.156 163.673 168.036C163.673 168.036 116.469 176.454 112.173 155.599C109.853 144.351 110.264 140.202 109.787 132.937" fill="#B78876"/>
<path d="M167.964 165.355C167.93 165.484 169.539 165.928 171.553 166.349C173.568 166.769 175.215 166.989 175.238 166.855C175.262 166.722 173.654 166.277 171.654 165.861C169.654 165.445 168.021 165.221 167.964 165.355Z" fill="#AA6550"/>
<path d="M168.222 163.27C168.188 163.404 169.873 163.973 171.983 164.547C174.093 165.12 175.84 165.474 175.873 165.34C175.907 165.206 174.227 164.638 172.112 164.069C169.997 163.5 168.26 163.141 168.222 163.27Z" fill="#AA6550"/>
<path d="M168.499 161.11C168.461 161.244 170.045 161.808 172.036 162.377C174.026 162.945 175.673 163.299 175.711 163.165C175.749 163.031 174.165 162.467 172.174 161.899C170.184 161.33 168.542 160.981 168.499 161.11Z" fill="#AA6550"/>
<path d="M117.486 117.358C115.957 117.225 114.42 117.496 113.028 118.144C111.637 118.793 110.44 119.796 109.557 121.053C107.954 123.3 106.479 126.914 107.204 132.272C108.636 142.731 109.777 146.22 109.777 146.22L128.971 143.175L126.345 125.633C126.345 125.633 124.03 118.018 117.486 117.358Z" fill="#FDC111"/>
<path opacity="0.2" d="M117.486 117.358C115.957 117.225 114.42 117.496 113.028 118.144C111.637 118.793 110.44 119.796 109.557 121.053C107.954 123.3 106.479 126.914 107.204 132.272C108.636 142.731 109.777 146.22 109.777 146.22L128.971 143.175L126.345 125.633C126.345 125.633 124.03 118.018 117.486 117.358Z" fill="black"/>
<path d="M165.845 152.96C165.707 152.954 165.569 152.937 165.434 152.907C165.167 152.864 164.766 152.783 164.265 152.711C163.993 152.734 163.734 152.837 163.52 153.008C163.245 153.196 162.981 153.402 162.733 153.624C162.125 154.172 161.55 154.755 161.01 155.369C159.523 155.806 157.985 156.041 156.437 156.067C154.614 156.088 152.791 156.013 150.976 155.842C146.575 155.532 142.575 155.288 139.701 154.886C138.269 154.695 137.109 154.494 136.317 154.327C135.916 154.251 135.615 154.169 135.405 154.121C135.298 154.101 135.192 154.071 135.09 154.031C135.2 154.032 135.309 154.046 135.415 154.074L136.331 154.231C137.129 154.37 138.288 154.542 139.725 154.709C142.589 155.063 146.585 155.283 150.995 155.594C152.904 155.742 154.742 155.876 156.432 155.833C157.961 155.814 159.48 155.596 160.952 155.183L160.909 155.211C161.461 154.598 162.051 154.02 162.675 153.481C162.932 153.255 163.207 153.051 163.496 152.869C163.734 152.686 164.023 152.583 164.322 152.573C164.838 152.668 165.22 152.764 165.487 152.821C165.61 152.856 165.73 152.903 165.845 152.96Z" fill="#AA6550"/>
<path d="M127.653 133.386C127.606 133.406 127.556 133.421 127.505 133.429L127.061 133.525L126.331 133.596C125.995 133.604 125.658 133.59 125.324 133.553C123.825 133.384 122.413 132.766 121.271 131.78C120.774 131.366 120.338 130.883 119.978 130.346C119.566 129.758 119.264 129.101 119.085 128.405C118.992 128.03 118.962 127.643 118.994 127.258C119.024 126.845 119.18 126.45 119.443 126.13C119.589 125.97 119.766 125.842 119.963 125.753C120.16 125.663 120.372 125.614 120.589 125.609C121.023 125.609 121.451 125.715 121.834 125.92C122.624 126.353 123.259 127.021 123.653 127.832C124.073 128.67 124.261 129.606 124.197 130.542C124.142 131.522 123.79 132.462 123.19 133.238C122.555 134.043 121.727 134.674 120.784 135.073C119.84 135.472 118.81 135.625 117.791 135.518C116.779 135.383 115.805 135.037 114.935 134.501C114.065 133.964 113.318 133.251 112.741 132.406C112.157 131.623 111.79 130.7 111.677 129.729C111.624 129.245 111.68 128.755 111.839 128.295C112.001 127.852 112.266 127.454 112.612 127.134C112.947 126.811 113.371 126.598 113.83 126.522C114.277 126.452 114.736 126.527 115.137 126.737C115.514 126.937 115.842 127.217 116.099 127.557C116.356 127.897 116.536 128.29 116.627 128.706C116.804 129.469 116.804 130.262 116.627 131.025C116.466 131.724 116.19 132.391 115.81 132.999C115.24 133.917 114.436 134.667 113.48 135.171C112.525 135.675 111.453 135.915 110.374 135.867C109.79 135.848 109.213 135.744 108.66 135.556C108.467 135.494 108.281 135.416 108.102 135.322C108.102 135.322 108.297 135.398 108.679 135.508C109.229 135.672 109.8 135.759 110.374 135.766C111.282 135.788 112.184 135.607 113.013 135.236C114.11 134.739 115.031 133.922 115.658 132.894C116.025 132.305 116.29 131.659 116.441 130.982C116.608 130.249 116.608 129.487 116.441 128.754C116.356 128.368 116.188 128.005 115.949 127.691C115.71 127.376 115.405 127.118 115.056 126.933C114.694 126.745 114.281 126.678 113.877 126.742C113.464 126.815 113.082 127.01 112.779 127.301C112.463 127.597 112.221 127.964 112.073 128.372C111.93 128.794 111.88 129.243 111.925 129.686C112.043 130.614 112.396 131.496 112.951 132.248C113.505 133.066 114.225 133.757 115.062 134.278C115.9 134.8 116.838 135.139 117.815 135.274C118.792 135.378 119.779 135.232 120.685 134.851C121.59 134.47 122.385 133.866 122.994 133.094C123.543 132.363 123.876 131.492 123.956 130.58C124.036 129.669 123.86 128.753 123.448 127.937C123.254 127.554 123.008 127.2 122.718 126.885C122.432 126.583 122.1 126.328 121.734 126.13C121.384 125.939 120.992 125.839 120.593 125.838C120.406 125.84 120.221 125.88 120.051 125.957C119.88 126.033 119.727 126.144 119.601 126.283C119.363 126.568 119.222 126.921 119.195 127.291C119.162 127.655 119.188 128.021 119.271 128.377C119.441 129.05 119.729 129.687 120.121 130.26C120.469 130.794 120.89 131.277 121.371 131.694C121.798 132.065 122.266 132.386 122.765 132.65C123.566 133.079 124.438 133.361 125.338 133.482C126.11 133.57 126.891 133.538 127.653 133.386Z" fill="#FAFAFA"/>
<path d="M117.558 80.3612C117.21 79.3789 116.596 78.5131 115.784 77.8613C114.972 77.2094 113.995 76.7972 112.962 76.6711C111.929 76.5449 110.881 76.7098 109.936 77.1472C108.992 77.5846 108.188 78.2772 107.615 79.147C106.889 80.2464 106.579 81.537 106.121 82.8037C105.662 84.0704 104.989 85.2989 103.829 85.9251C102.474 86.6612 100.689 86.4031 99.457 87.3591C98.0823 88.3868 98.025 90.6573 99.1993 91.9288C100.374 93.2002 102.354 93.4775 103.973 92.8417C103.582 93.8465 103.361 94.9095 103.319 95.987C103.303 96.5273 103.42 97.0633 103.659 97.5476C103.899 98.032 104.254 98.4498 104.693 98.7642C105.175 99.0221 105.714 99.1523 106.259 99.1423C106.805 99.1322 107.339 98.9823 107.81 98.7068C108.75 98.1462 109.556 97.3878 110.173 96.4841C110.328 97.2438 110.593 97.9767 110.961 98.659C111.147 98.9986 111.404 99.2941 111.715 99.5251C112.025 99.7561 112.382 99.9172 112.76 99.9974C113.234 100.038 113.709 99.949 114.136 99.7393C114.562 99.5296 114.923 99.2073 115.18 98.8072C115.683 97.9969 115.983 97.0769 116.054 96.1256C116.33 93.7898 116.178 91.4231 115.605 89.142C115.247 87.6793 114.741 86.1832 115.023 84.7062C115.305 83.2292 116.756 81.8382 118.192 82.2875" fill="#263238"/>
<path d="M98.7412 90.4424C98.8152 90.4943 98.8975 90.5331 98.9846 90.5571C99.2263 90.6449 99.4735 90.7167 99.7245 90.7722C100.887 91.0191 102.093 90.9783 103.237 90.6535C104.38 90.3287 105.428 89.7295 106.288 88.908C106.896 88.3256 107.403 87.6454 107.787 86.8956C108.177 86.087 108.46 85.2304 108.627 84.3479C108.782 83.4918 109.015 82.6518 109.324 81.8384C109.619 81.1025 110.115 80.4648 110.756 79.9981C111.301 79.6052 111.924 79.3354 112.584 79.2075C113.243 79.0796 113.922 79.0965 114.574 79.2572C115.463 79.488 116.283 79.9327 116.961 80.5525C117.438 80.9923 117.658 81.2982 117.687 81.2743C117.715 81.2504 117.653 81.1835 117.558 81.0353C117.415 80.8249 117.255 80.6267 117.08 80.4426C116.411 79.7587 115.573 79.2641 114.651 79.0086C113.956 78.8168 113.228 78.7812 112.519 78.9043C111.809 79.0274 111.135 79.3063 110.546 79.7208C109.848 80.2212 109.305 80.9088 108.98 81.7045C108.655 82.5382 108.411 83.4009 108.25 84.2809C108.09 85.1308 107.822 85.9565 107.453 86.7379C106.962 87.7021 106.264 88.5453 105.409 89.2066C104.554 89.8679 103.563 90.3308 102.507 90.5619C101.603 90.7552 100.672 90.7843 99.7579 90.6479C99.104 90.5236 98.7508 90.4089 98.7412 90.4424Z" fill="#455A64"/>
<path d="M111.328 99.2709C111.328 99.2709 111.4 99.2374 111.519 99.1418C111.7 99.0059 111.861 98.845 111.997 98.6638C112.482 98.0029 112.776 97.2205 112.846 96.4029C112.953 95.2037 112.815 93.9953 112.441 92.8513C112.078 91.5607 111.519 90.1936 111.305 88.7023C111.087 87.3042 111.364 85.8738 112.087 84.6584C112.674 83.6617 113.54 82.8603 114.579 82.3544C115.283 82.0113 116.043 81.7991 116.822 81.7283C117.113 81.7235 117.403 81.7028 117.691 81.6661C117.407 81.5821 117.109 81.5513 116.813 81.5753C116.002 81.5897 115.203 81.7703 114.464 82.1059C113.35 82.6017 112.413 83.4253 111.777 84.4672C110.991 85.754 110.686 87.2786 110.918 88.7692C111.142 90.3323 111.72 91.7041 112.097 92.966C112.476 94.0651 112.638 95.2275 112.574 96.3885C112.537 97.1698 112.297 97.9278 111.877 98.5873C111.548 99.0414 111.3 99.2422 111.328 99.2709Z" fill="#455A64"/>
<path d="M143.2 90.213C146.942 81.5468 141.811 76.2697 138.47 74.3768C136.479 73.2487 134.112 73.0097 131.83 72.9428C129.57 72.8336 127.307 73.0412 125.104 73.5594C122.894 74.0842 120.875 75.2223 119.281 76.8433C116.546 79.7782 115.94 84.1232 116.178 88.1289C116.474 92.8657 117.837 97.474 120.164 101.608C120.422 102.163 120.826 102.635 121.333 102.976C121.592 103.135 121.901 103.192 122.199 103.138C122.498 103.083 122.766 102.92 122.952 102.679" fill="#263238"/>
<path d="M136.785 111.852L136.646 107.292C136.646 107.292 141.968 106.408 143.071 99.4527C143.62 95.992 143.448 90.3229 143.157 85.6863C143.095 84.6951 142.833 83.7269 142.387 82.84C141.941 81.9531 141.32 81.166 140.561 80.5262C139.803 79.8864 138.923 79.4072 137.974 79.1177C137.026 78.8281 136.028 78.7341 135.042 78.8413L122.999 80.1176C122.39 80.181 121.828 80.4713 121.423 80.9309C121.018 81.3904 120.8 81.9856 120.813 82.5984L122.412 112.449C122.505 114.287 123.3 116.019 124.633 117.286C125.966 118.553 127.734 119.259 129.572 119.256C130.537 119.264 131.493 119.076 132.383 118.704C133.274 118.333 134.08 117.785 134.754 117.093C135.427 116.402 135.955 115.581 136.304 114.68C136.653 113.78 136.816 112.818 136.785 111.852Z" fill="#B78876"/>
<path d="M141.954 89.6153C141.956 89.848 141.867 90.0722 141.707 90.2407C141.547 90.4092 141.327 90.5089 141.095 90.5188C140.981 90.5272 140.867 90.5129 140.759 90.4767C140.651 90.4406 140.551 90.3832 140.466 90.308C140.38 90.2328 140.31 90.1413 140.26 90.0388C140.21 89.9363 140.18 89.8249 140.174 89.7109C140.172 89.4787 140.261 89.2551 140.422 89.0874C140.582 88.9196 140.801 88.821 141.033 88.8123C141.146 88.8032 141.261 88.8169 141.369 88.8525C141.477 88.8881 141.576 88.945 141.662 89.0198C141.748 89.0946 141.818 89.1858 141.868 89.2881C141.918 89.3904 141.948 89.5016 141.954 89.6153Z" fill="#263238"/>
<path d="M141.93 88.6163C141.816 88.731 141.142 88.2291 140.183 88.2339C139.224 88.2387 138.522 88.7119 138.422 88.5972C138.321 88.4825 138.479 88.3343 138.789 88.1192C139.209 87.8261 139.71 87.6723 140.221 87.6794C140.719 87.6783 141.203 87.8357 141.605 88.1288C141.882 88.3534 141.983 88.5637 141.93 88.6163Z" fill="#263238"/>
<path d="M132.35 89.864C132.352 90.0967 132.263 90.3209 132.103 90.4894C131.942 90.6578 131.723 90.7575 131.491 90.7674C131.377 90.7759 131.263 90.7616 131.155 90.7254C131.047 90.6892 130.947 90.6319 130.862 90.5567C130.776 90.4815 130.706 90.39 130.656 90.2875C130.606 90.185 130.576 90.0735 130.57 89.9596C130.568 89.7274 130.657 89.5038 130.818 89.336C130.978 89.1683 131.197 89.0697 131.429 89.061C131.542 89.0525 131.656 89.0666 131.764 89.1025C131.872 89.1384 131.971 89.1953 132.057 89.27C132.143 89.3447 132.213 89.4356 132.263 89.5376C132.313 89.6396 132.343 89.7505 132.35 89.864Z" fill="#263238"/>
<path d="M132.508 88.7934C132.398 88.9081 131.72 88.411 130.765 88.411C129.811 88.411 129.104 88.889 128.999 88.779C128.894 88.6691 129.061 88.5161 129.367 88.301C129.787 88.0097 130.288 87.8575 130.799 87.8661C131.297 87.8669 131.783 88.024 132.188 88.3154C132.46 88.5305 132.56 88.7408 132.508 88.7934Z" fill="#263238"/>
<path d="M135.988 95.9105C136.492 95.7505 137.015 95.6557 137.544 95.6285C137.787 95.6046 138.021 95.5568 138.059 95.3895C138.081 95.1364 138.024 94.8827 137.897 94.663L137.171 92.794C136.169 90.1363 135.439 87.9518 135.549 87.9136C135.658 87.8754 136.556 89.9977 137.563 92.6506C137.802 93.3102 138.04 93.9316 138.255 94.5291C138.407 94.8233 138.452 95.1611 138.384 95.4851C138.349 95.5725 138.294 95.6504 138.224 95.7126C138.153 95.7749 138.069 95.8197 137.978 95.8436C137.843 95.8816 137.703 95.9009 137.563 95.901C137.04 95.969 136.511 95.9723 135.988 95.9105Z" fill="#263238"/>
<path d="M136.646 107.268C133.377 107.317 130.158 106.457 127.348 104.782C127.348 104.782 129.605 109.562 136.555 108.907L136.646 107.268Z" fill="#AA6550"/>
<path d="M135.563 98.2241C135.38 97.9936 135.142 97.8135 134.87 97.7006C134.599 97.5877 134.304 97.5458 134.012 97.5788C133.8 97.599 133.595 97.6615 133.408 97.7625C133.221 97.8634 133.056 98.0009 132.923 98.1668C132.795 98.3264 132.719 98.5216 132.705 98.7259C132.692 98.9303 132.741 99.1339 132.847 99.3092C133.002 99.4814 133.204 99.6038 133.428 99.6608C133.653 99.7178 133.889 99.7069 134.107 99.6294C134.559 99.4669 134.974 99.2167 135.329 98.8933C135.438 98.818 135.532 98.7222 135.606 98.6113C135.641 98.5581 135.66 98.4958 135.66 98.432C135.66 98.3683 135.641 98.306 135.606 98.2528" fill="#AA6550"/>
<path d="M133.176 96.5562C133.329 96.5562 133.333 97.5886 134.221 98.3248C135.109 99.0609 136.221 98.9509 136.231 99.0991C136.231 99.1613 135.983 99.2999 135.515 99.3142C134.905 99.3214 134.311 99.1133 133.839 98.7263C133.385 98.3579 133.094 97.8258 133.028 97.2445C132.98 96.8286 133.095 96.5562 133.176 96.5562Z" fill="#263238"/>
<path d="M132.937 87.1105C132.847 87.3734 131.887 87.2491 130.766 87.3878C129.644 87.5264 128.727 87.8275 128.579 87.5933C128.513 87.4833 128.67 87.2348 129.057 86.9862C129.543 86.6707 130.098 86.4757 130.675 86.4174C131.251 86.3462 131.835 86.415 132.379 86.6182C132.77 86.7855 132.98 86.9958 132.937 87.1105Z" fill="#263238"/>
<path d="M141.577 85.8344C141.405 86.0543 140.747 85.8344 139.954 85.8344C139.162 85.8344 138.489 85.9778 138.331 85.7483C138.265 85.6384 138.37 85.4233 138.666 85.213C139.057 84.9595 139.518 84.8358 139.983 84.8593C140.449 84.8666 140.901 85.0186 141.277 85.2942C141.558 85.5046 141.649 85.7292 141.577 85.8344Z" fill="#263238"/>
<path d="M143.157 85.6626C141.945 79.7354 140.293 82.0824 138.427 79.2526C135.725 81.9916 129.506 85.1463 125.711 85.7677C125.317 85.7971 124.936 85.92 124.599 86.1262C124.016 86.5612 123.968 87.4025 123.968 88.1339C124.044 90.1942 123.874 92.2562 123.462 94.2761C123.047 96.3082 122.011 98.1608 120.498 99.5772C118.207 94.7446 117.978 89.1233 119.004 83.8701C119.424 81.7239 120.131 79.4773 121.84 78.1341C123.062 77.1781 124.637 76.767 126.174 76.485C129.969 75.7871 133.983 75.6198 137.596 76.963C141.21 78.3062 144.016 79.9887 144.499 83.8223" fill="#263238"/>
<path d="M116.913 81.4992C117.155 81.6708 117.416 81.8135 117.691 81.9246C117.999 82.0784 118.318 82.2078 118.646 82.3118L119.257 82.5269L119.963 82.7038C121.128 82.9808 122.318 83.1409 123.515 83.1818C126.454 83.292 129.385 82.8042 132.13 81.7478C132.751 81.4705 133.352 81.2459 133.878 80.9447L134.641 80.5336L135.319 80.0987C135.707 79.8505 136.077 79.5758 136.426 79.2765L136.866 78.9228L137.2 78.5834C137.418 78.3843 137.614 78.1632 137.787 77.9238C137.725 77.8568 136.88 78.8033 135.166 79.8644L134.493 80.2707L133.73 80.6531C133.209 80.9399 132.613 81.1311 132.002 81.4084C130.647 81.9022 129.251 82.2733 127.83 82.5173C126.409 82.7447 124.972 82.8486 123.534 82.828C122.356 82.801 121.184 82.6682 120.03 82.4313C118.063 82.0202 116.946 81.4227 116.913 81.4992Z" fill="#455A64"/>
<path d="M118.88 76.8145C119.059 76.9973 119.259 77.1578 119.477 77.2925C119.72 77.4739 119.979 77.6338 120.25 77.7705L120.751 78.0429L121.338 78.2915C123.513 79.1329 125.828 79.5468 128.159 79.5104C130.477 79.5152 132.788 79.257 135.047 78.7408C135.916 78.5448 136.608 78.3488 137.076 78.1911C137.327 78.1311 137.57 78.0378 137.797 77.9139C137.797 77.8517 136.723 78.1433 134.995 78.4683C132.742 78.8996 130.453 79.1173 128.159 79.1184C125.873 79.151 123.599 78.7838 121.438 78.0334C120.565 77.6708 119.711 77.264 118.88 76.8145Z" fill="#455A64"/>
<path d="M140.221 75.3041C140.221 75.2611 139.983 75.2133 139.61 75.3041C139.127 75.4472 138.697 75.7315 138.375 76.1206C138.054 76.5097 137.856 76.9861 137.806 77.4886C137.782 77.871 137.873 78.0957 137.921 78.0909C137.968 78.0861 137.988 77.1731 138.675 76.3701C139.362 75.567 140.241 75.4141 140.221 75.3041Z" fill="#455A64"/>
<path d="M104.345 82.7944C104.295 82.6981 104.225 82.6134 104.14 82.5458C103.898 82.3352 103.599 82.2034 103.28 82.1682C102.779 82.1082 102.273 82.2248 101.848 82.498C101.558 82.6828 101.324 82.9455 101.175 83.2565C101.025 83.5674 100.966 83.9141 101.004 84.257C101.049 84.6695 101.194 85.0647 101.426 85.4085C101.658 85.7524 101.97 86.0347 102.335 86.2312C102.769 86.4338 103.249 86.5146 103.725 86.4649C104.201 86.4152 104.655 86.2369 105.037 85.9492C105.461 85.655 105.804 85.2589 106.035 84.7972C106.255 84.3158 106.379 83.7964 106.402 83.2676C106.474 82.216 106.292 81.1548 106.483 80.1223C106.686 79.1489 107.133 78.2432 107.782 77.4905C108.431 76.7379 109.26 76.1631 110.192 75.8203C110.96 75.5573 111.777 75.4723 112.583 75.5717C113.388 75.671 114.16 75.9522 114.842 76.3939C115.782 76.9823 116.542 77.8193 117.037 78.8126C117.381 79.5201 117.453 79.9646 117.515 79.955C117.52 79.8469 117.507 79.7386 117.476 79.6348C117.415 79.3306 117.32 79.0341 117.195 78.7505C116.733 77.6935 115.973 76.7947 115.009 76.1645C114.343 75.723 113.597 75.4191 112.813 75.2706C111.903 75.1045 110.966 75.177 110.092 75.481C109.093 75.8341 108.203 76.4394 107.506 77.2383C106.81 78.0372 106.331 79.0026 106.116 80.0411C105.915 81.1692 106.116 82.2399 106.039 83.2341C106.023 83.713 105.913 84.1839 105.715 84.6203C105.518 85.0288 105.22 85.3806 104.851 85.6432C104.521 85.8975 104.129 86.0586 103.716 86.1099C103.303 86.1612 102.884 86.1007 102.502 85.9348C102.179 85.766 101.902 85.5221 101.692 85.2235C101.483 84.9249 101.348 84.5803 101.3 84.2188C101.26 83.9222 101.303 83.6204 101.424 83.3469C101.546 83.0735 101.74 82.8392 101.987 82.6701C102.371 82.4035 102.834 82.277 103.3 82.3116C103.689 82.361 104.054 82.5296 104.345 82.7944Z" fill="#263238"/>
<path d="M122.584 85.9299C122.82 85.9849 123.063 86.0042 123.305 85.9873C123.782 85.9873 124.446 85.9873 125.281 85.9873C127.467 85.9508 129.634 85.5767 131.706 84.8783C133.8 84.149 135.629 82.809 136.956 81.0304C137.345 80.4891 137.658 79.8973 137.887 79.2714C137.984 79.0463 138.045 78.8077 138.069 78.564C137.696 79.3721 137.249 80.1434 136.732 80.8679C135.385 82.5401 133.598 83.8018 131.572 84.5103C129.534 85.193 127.413 85.5982 125.267 85.7148C124.369 85.7372 123.474 85.809 122.584 85.9299Z" fill="#263238"/>
<path d="M112.727 102.918C112.727 102.918 112.751 103.2 113.056 103.578C113.281 103.839 113.556 104.052 113.866 104.203C114.175 104.354 114.512 104.441 114.856 104.457C115.885 104.485 116.884 104.108 117.639 103.406C118.115 102.996 118.419 102.42 118.488 101.795C118.526 101.447 118.46 101.096 118.299 100.785C118.137 100.475 117.888 100.219 117.582 100.05C117.251 99.8966 116.874 99.8786 116.53 100C116.187 100.122 115.905 100.373 115.744 100.7C115.68 100.864 115.653 101.04 115.666 101.215C115.678 101.39 115.729 101.561 115.815 101.714C115.966 102.001 116.205 102.231 116.498 102.369C117.024 102.59 117.616 102.6 118.15 102.397C118.602 102.24 119.009 101.976 119.338 101.628C119.821 101.139 120.131 100.507 120.221 99.8256C120.272 99.5823 120.258 99.3298 120.178 99.0942C120.145 99.0942 120.178 99.3571 120.073 99.8017C119.932 100.425 119.61 100.992 119.147 101.432C118.837 101.735 118.459 101.959 118.045 102.087C117.593 102.247 117.097 102.232 116.656 102.043C116.433 101.946 116.254 101.771 116.151 101.551C116.048 101.332 116.029 101.082 116.097 100.848C116.221 100.621 116.426 100.449 116.671 100.367C116.916 100.284 117.183 100.298 117.419 100.404C117.653 100.541 117.843 100.743 117.965 100.986C118.087 101.228 118.136 101.501 118.107 101.771C118.043 102.302 117.789 102.791 117.391 103.148C116.709 103.798 115.807 104.167 114.866 104.18C114.231 104.17 113.623 103.919 113.166 103.477C112.851 103.152 112.76 102.904 112.727 102.918Z" fill="#263238"/>
<path d="M152.551 187.495C152.551 187.562 135.224 187.62 113.854 187.62C92.4833 187.62 75.1514 187.562 75.1514 187.495C75.1514 187.428 92.4738 187.371 113.854 187.371C135.233 187.371 152.551 187.428 152.551 187.495Z" fill="#455A64"/>
<path d="M51.1796 159.748C52.0098 159.883 52.804 160.185 53.5144 160.636C54.2248 161.087 54.8368 161.678 55.3133 162.372C56.2589 163.766 56.8728 165.359 57.1081 167.027C57.6523 170.23 56.7978 173.872 55.6236 176.898C52.3539 175.378 50.5973 171.602 49.8383 169.59C48.6259 166.454 48.3395 160.03 51.1796 159.748Z" fill="#FDC111"/>
<path d="M60.1442 181.162C59.709 180.328 59.5023 179.393 59.5451 178.452C59.5878 177.512 59.8785 176.6 60.3876 175.809C60.9101 175.028 61.5819 174.358 62.3644 173.839C63.1468 173.319 64.0243 172.96 64.9461 172.783C65.7958 172.606 66.76 172.592 67.433 173.137C67.7334 173.411 67.9548 173.761 68.074 174.15C68.1932 174.54 68.206 174.954 68.1109 175.35C67.9124 176.14 67.507 176.862 66.9366 177.443C65.0798 179.494 62.9127 181.162 60.1442 181.162Z" fill="#FDC111"/>
<path d="M59.5428 191.616C59.4904 191.398 59.4601 191.176 59.4521 190.952C59.4044 190.474 59.3423 189.871 59.266 189.14C59.0027 187.137 59.0656 185.105 59.4521 183.122C59.8719 181.132 60.8125 179.289 62.1777 177.783C62.5972 177.336 63.0683 176.942 63.5811 176.607C63.7192 176.514 63.8627 176.429 64.0107 176.353C64.0595 176.322 64.1125 176.298 64.1682 176.282C63.4936 176.756 62.8683 177.298 62.3018 177.897C61.0008 179.402 60.0994 181.21 59.6812 183.155C59.1514 185.435 59.3471 187.582 59.433 189.106C59.4855 189.871 59.5237 190.497 59.5428 190.928C59.5625 191.157 59.5625 191.387 59.5428 191.616Z" fill="#263238"/>
<path d="M51.8335 164.604C51.8771 164.69 51.9138 164.78 51.9433 164.872C52.0149 165.077 52.1104 165.35 52.2249 165.656C52.4588 166.339 52.7929 167.333 53.1796 168.567C53.9767 171.028 55.0316 174.441 56.1152 178.241C57.1987 182.041 58.0961 185.502 58.7119 188.012C59.0221 189.269 59.2608 190.287 59.4183 190.994C59.4947 191.329 59.552 191.597 59.5949 191.807C59.6218 191.902 59.6378 192 59.6427 192.099C59.6056 192.009 59.5753 191.916 59.552 191.821L59.3324 191.018C59.1415 190.287 58.8551 189.283 58.5496 188.055C57.8956 185.555 56.9696 182.104 55.8908 178.303C54.8121 174.503 53.7762 171.09 53.0268 168.614C52.6545 167.4 52.3538 166.406 52.1294 165.684C52.034 165.359 51.9576 165.092 51.8956 164.886C51.8631 164.795 51.8422 164.7 51.8335 164.604Z" fill="#263238"/>
<path d="M56.1679 184.336C55.311 182.549 54.0414 180.992 52.4643 179.794C50.8872 178.596 49.0478 177.792 47.0985 177.448C46.1057 177.28 44.8885 177.338 44.3586 178.193C43.8288 179.049 44.33 180.172 44.941 180.975C46.2491 182.625 48.0153 183.85 50.0174 184.497C52.0194 185.143 54.1677 185.182 56.1917 184.608" fill="#FDC111"/>
<path d="M48.3634 180.263C48.5722 180.271 48.7799 180.299 48.9839 180.344C49.2267 180.382 49.4673 180.434 49.7047 180.497C49.9815 180.579 50.3061 180.636 50.6593 180.765C51.0374 180.887 51.4087 181.029 51.7715 181.191C52.1894 181.367 52.5974 181.567 52.9935 181.788C53.9025 182.304 54.751 182.919 55.5234 183.624C56.28 184.341 56.9526 185.143 57.5282 186.014C57.7768 186.397 58.0031 186.794 58.206 187.204C58.3886 187.555 58.548 187.917 58.6833 188.289C58.8052 188.592 58.9104 188.901 58.9983 189.216C59.0757 189.449 59.1378 189.687 59.1845 189.928C59.2379 190.132 59.273 190.34 59.2895 190.55C59.237 190.55 59.0795 189.675 58.5306 188.351C58.3819 187.988 58.2129 187.634 58.0246 187.29C57.8186 186.892 57.5907 186.506 57.342 186.133C56.2018 184.416 54.6746 182.992 52.8837 181.974C52.4957 181.749 52.0957 181.545 51.6856 181.363C51.3085 181.176 50.9362 181.047 50.6021 180.918C49.2417 180.445 48.3538 180.316 48.3634 180.263Z" fill="#263238"/>
<path d="M167.262 35.8502C163.622 35.6045 159.979 36.3044 156.688 37.8823C153.397 39.4601 150.569 41.8623 148.477 44.8562C146.385 47.85 145.1 51.3342 144.748 54.9711C144.396 58.608 144.987 62.2744 146.465 65.6152C148.928 71.1935 153.701 75.5242 155.806 81.2602C157.238 85.1702 157.363 89.4818 158.837 93.3775C161.869 101.389 171.124 106.484 179.501 104.759C184.532 103.726 189.048 100.576 194.184 100.256C199.683 99.9117 205.945 102.713 210.304 99.3286C213.349 96.9625 213.864 92.4215 212.762 88.7265C211.659 85.0316 209.282 81.8768 207.33 78.5499C205.377 75.223 203.788 71.3799 204.514 67.5894C205.167 64.1525 207.602 61.3754 209.129 58.2253C210.57 55.2636 211.207 51.9742 210.975 48.688C210.743 45.4017 209.652 42.2345 207.81 39.5048C205.968 36.7752 203.441 34.5793 200.482 33.1381C197.524 31.6969 194.239 31.0611 190.957 31.2948C186.585 31.6055 182.485 33.4315 178.279 34.6408C174.074 35.8502 171.969 36.0127 167.262 35.8502Z" fill="#F5F5F5"/>
<path d="M177.749 49.8988C177.749 49.8988 169.658 49.8175 166.876 56.8584C164.093 63.8994 167.281 67.298 168.527 69.3677C169.773 71.4374 173.119 75.9402 173.148 80.1848L184.017 80.1131C184.58 76.3559 185.878 72.7467 187.835 69.492C191.086 64.0715 190.699 60.1184 189.811 57.7571C188.924 55.3958 186.026 49.5498 177.749 49.8988Z" fill="#FDC111"/>
<path d="M180.217 79.8264L180.189 79.6543C180.189 79.5348 180.146 79.3723 180.112 79.1763C180.045 78.727 179.955 78.0817 179.835 77.2643C179.611 75.5961 179.277 73.1726 179.067 70.1612C179.014 69.406 178.971 68.6173 178.947 67.7712C178.924 66.9251 178.904 66.0886 178.947 65.1996C178.985 64.2716 179.2 63.3595 179.582 62.5132C179.998 61.6035 180.734 60.8787 181.649 60.4769C182.141 60.2828 182.678 60.2351 183.196 60.3394C183.715 60.4437 184.192 60.6956 184.57 61.0649C184.767 61.257 184.922 61.487 185.027 61.7408C185.132 61.9947 185.184 62.2671 185.181 62.5419C185.164 63.1009 184.967 63.6393 184.618 64.0763C184.275 64.5218 183.827 64.8763 183.315 65.1087C182.806 65.347 182.268 65.5205 181.716 65.625C180.596 65.8476 179.459 65.9692 178.317 65.9883C177.178 66.0193 176.038 65.9537 174.909 65.7923C174.353 65.7043 173.81 65.5436 173.296 65.3143C172.788 65.0892 172.33 64.7641 171.95 64.3583C171.573 63.9565 171.309 63.4616 171.186 62.9243C171.073 62.3857 171.145 61.8246 171.391 61.3325C171.624 60.8435 172.029 60.4574 172.527 60.2475C172.775 60.1581 173.037 60.1196 173.3 60.1344C173.562 60.1492 173.819 60.2169 174.055 60.3335C174.511 60.5582 174.9 60.8975 175.186 61.3182C175.451 61.7142 175.644 62.1545 175.754 62.6184C175.913 63.5243 175.995 64.4422 175.998 65.3621C176.074 67.1355 176.146 68.7846 176.208 70.295C176.332 73.3017 176.427 75.7395 176.499 77.4316C176.527 78.2729 176.551 78.9229 176.57 79.3723C176.57 79.5921 176.57 79.7594 176.57 79.8789C176.57 79.9984 176.57 80.051 176.57 80.051V79.8789C176.57 79.7594 176.57 79.5921 176.542 79.4009C176.542 78.9516 176.48 78.2968 176.437 77.4603C176.356 75.7681 176.241 73.3303 176.093 70.3237C176.026 68.818 175.945 67.1641 175.864 65.3955C175.858 64.4835 175.775 63.5736 175.616 62.6757C175.517 62.2143 175.334 61.7751 175.076 61.3803C174.806 60.9819 174.436 60.662 174.002 60.453C173.785 60.3444 173.549 60.2812 173.307 60.2672C173.064 60.2533 172.822 60.2888 172.594 60.3718C172.133 60.5673 171.761 60.9265 171.549 61.3803C171.317 61.8395 171.25 62.3641 171.358 62.8669C171.475 63.3813 171.727 63.855 172.088 64.2388C172.857 65.0172 173.867 65.5124 174.952 65.6441C176.069 65.806 177.198 65.8715 178.327 65.8401C179.457 65.8207 180.583 65.7008 181.692 65.4816C182.233 65.3794 182.759 65.2109 183.258 64.9797C183.742 64.7627 184.169 64.4353 184.504 64.0237C184.828 63.6143 185.014 63.1119 185.033 62.5897C185.037 62.3355 184.989 62.0833 184.892 61.8483C184.795 61.6133 184.652 61.4005 184.47 61.2226C184.114 60.8753 183.665 60.6382 183.177 60.5399C182.689 60.4416 182.184 60.4861 181.721 60.6681C180.84 61.054 180.13 61.7494 179.725 62.6231C179.352 63.4533 179.14 64.3472 179.1 65.2569C179.043 66.1364 179.067 66.9921 179.1 67.8142C179.134 68.6364 179.162 69.4251 179.205 70.1755C179.401 73.1869 179.721 75.6056 179.926 77.2834L180.169 79.1954C180.195 79.4089 180.214 79.5762 180.227 79.6973C180.225 79.7404 180.222 79.7835 180.217 79.8264Z" fill="#263238"/>
<path d="M173.143 80.0271L184.05 79.855L184.169 86.7573L181 90.5431L176.819 90.7199L173.277 86.4848L173.143 80.0271Z" fill="#E0E0E0"/>
<path d="M181 90.5428C180.716 90.2522 180.376 90.0232 179.999 89.8703C179.623 89.7173 179.22 89.6436 178.814 89.6538C178.413 89.6786 178.022 89.7876 177.666 89.9738C177.31 90.1599 176.997 90.4189 176.747 90.734L181 90.5428Z" fill="#455A64"/>
<path d="M183.878 86.1885C183.74 86.1484 183.607 86.0922 183.482 86.0212C183.234 85.9017 182.866 85.744 182.403 85.5767C179.962 84.7063 177.288 84.7624 174.885 85.7344C174.432 85.9209 174.069 86.0929 173.826 86.2124C173.701 86.2832 173.572 86.3455 173.439 86.3989C173.547 86.3043 173.666 86.2225 173.792 86.1551C174.129 85.9509 174.48 85.7704 174.842 85.6149C177.256 84.5654 179.986 84.5087 182.441 85.4572C182.807 85.594 183.165 85.7537 183.511 85.9352C183.64 86.0092 183.763 86.094 183.878 86.1885Z" fill="#263238"/>
<path d="M183.893 84.5153C183.757 84.467 183.625 84.4095 183.497 84.3432C183.248 84.2285 182.881 84.066 182.418 83.9035C181.207 83.4767 179.93 83.2695 178.647 83.2916C177.362 83.3203 176.093 83.581 174.9 84.0612C174.423 84.2428 174.084 84.4197 173.84 84.5392C173.719 84.6161 173.589 84.6787 173.454 84.7256C173.565 84.635 173.683 84.5535 173.807 84.4818C174.145 84.2815 174.496 84.1026 174.857 83.9465C177.271 82.897 180.001 82.8403 182.456 83.7887C182.824 83.9215 183.181 84.0813 183.525 84.2667C183.657 84.3346 183.781 84.4181 183.893 84.5153Z" fill="#263238"/>
<path d="M183.807 82.9187C183.671 82.8768 183.54 82.8208 183.416 82.7513C183.163 82.6318 182.795 82.4741 182.332 82.3068C181.122 81.8791 179.844 81.6719 178.561 81.695C177.278 81.7283 176.011 81.9889 174.819 82.4646C174.341 82.651 174.003 82.8231 173.759 82.9426C173.634 83.0152 173.503 83.0775 173.368 83.129C173.477 83.0338 173.597 82.952 173.726 82.8852C174.062 82.6818 174.411 82.5014 174.771 82.3451C177.187 81.2973 179.917 81.2407 182.375 82.1873C182.741 82.3242 183.098 82.4838 183.444 82.6653C183.573 82.7383 183.694 82.8231 183.807 82.9187Z" fill="#263238"/>
<g opacity="0.2">
<path d="M171.84 69.3818C171.692 69.5491 171.315 69.5204 170.771 69.2384C170.025 68.8141 169.375 68.2396 168.861 67.551C168.077 66.5301 167.508 65.3611 167.186 64.1142C166.768 62.5517 166.73 60.9115 167.075 59.3312C167.421 57.7509 168.14 56.2767 169.172 55.0322C169.982 54.0318 170.987 53.2072 172.126 52.6087C172.876 52.1972 173.704 51.9465 174.556 51.8726C175.162 51.8439 175.511 51.973 175.587 52.1881C175.725 52.6661 174.709 53.3066 173.496 54.5399C172.797 55.2378 172.18 56.0141 171.659 56.8534C171.044 57.8366 170.599 58.9159 170.341 60.0464C170.106 61.1814 170.06 62.3474 170.203 63.4976C170.33 64.4772 170.567 65.4393 170.909 66.3656C171.501 67.9956 172.155 69.0185 171.84 69.3818Z" fill="white"/>
</g>
<g opacity="0.2">
<path d="M175.325 73.244C175.293 73.5388 175.177 73.818 174.99 74.0478C174.803 74.2776 174.553 74.448 174.271 74.5383C173.989 74.6286 173.687 74.6349 173.402 74.5564C173.116 74.478 172.86 74.3181 172.663 74.0964C172.467 73.8746 172.339 73.6004 172.295 73.3072C172.251 73.0141 172.294 72.7145 172.417 72.4449C172.54 72.1753 172.739 71.9474 172.989 71.7889C173.239 71.6303 173.53 71.548 173.826 71.5519C174.248 71.5802 174.641 71.7736 174.922 72.0902C175.202 72.4069 175.347 72.8213 175.325 73.244Z" fill="white"/>
</g>
<path d="M164.704 52.4513C164.675 52.4847 163.272 51.4953 161.611 50.2142C159.95 48.9332 158.594 47.8768 158.618 47.8242C158.642 47.7717 160.05 48.7802 161.711 50.0613C163.372 51.3423 164.733 52.413 164.704 52.4513Z" fill="#263238"/>
<path d="M166.99 49.4158C166.518 48.9609 166.086 48.4668 165.697 47.9388C165.265 47.4476 164.873 46.9216 164.527 46.3662C165.002 46.8204 165.436 47.3146 165.826 47.8432C166.259 48.3327 166.648 48.8588 166.99 49.4158Z" fill="#263238"/>
<path d="M171.969 48.7177C171.926 48.7177 171.372 47.1929 170.733 45.2809C170.093 43.3689 169.611 41.8011 169.654 41.7867C169.697 41.7724 170.251 43.3115 170.89 45.2235C171.53 47.1355 172.012 48.7034 171.969 48.7177Z" fill="#263238"/>
<path d="M178.083 47.3939C177.923 46.8249 177.814 46.2426 177.759 45.654C177.65 45.0725 177.597 44.4818 177.601 43.8901C177.762 44.459 177.871 45.0414 177.926 45.6301C178.035 46.2115 178.088 46.8022 178.083 47.3939Z" fill="#263238"/>
<path d="M184.083 49.4683C184.036 49.4683 184.499 47.6376 185.115 45.4053C185.73 43.1731 186.27 41.371 186.313 41.3853C186.356 41.3997 185.893 43.2161 185.277 45.4483C184.661 47.6806 184.126 49.4827 184.083 49.4683Z" fill="#263238"/>
<path d="M189.139 51.9684C189.43 51.374 189.77 50.8049 190.155 50.2667C190.493 49.6984 190.879 49.161 191.311 48.6606C191.019 49.255 190.679 49.8242 190.294 50.3623C189.957 50.9306 189.57 51.4681 189.139 51.9684Z" fill="#263238"/>
<path d="M197.139 50.9215C197.163 50.9597 195.759 52.0209 193.998 53.3115C192.237 54.6021 190.79 55.5868 190.762 55.5485C190.733 55.5103 192.141 54.4491 193.903 53.1585C195.664 51.8679 197.139 50.8832 197.139 50.9215Z" fill="#263238"/>
</svg>
