<svg width="24" height="24" viewBox="0 0 24 24" fill="none" xmlns="http://www.w3.org/2000/svg">
<path d="M14.3287 11.6031C14.2817 11.5562 14.2432 11.1813 14.2432 10.7699V10.0223H10.2658C5.09803 10.0223 5.14308 10.0394 5.14308 8.10239C5.14308 7.16948 5.17542 7.03039 5.45769 6.74811L5.77228 6.43359H12.0002H18.2282L18.5427 6.74811C18.8251 7.03039 18.8574 7.16948 18.8574 8.10239C18.8574 8.67417 18.7951 9.25839 18.7189 9.40079C18.5391 9.73668 17.8448 10.0223 17.2081 10.0223C16.779 10.0223 16.5506 10.1463 15.6722 10.8554C14.6489 11.6816 14.4936 11.7681 14.3287 11.6031ZM17.3497 9.50959C18.2993 9.50959 18.4729 9.30514 18.4729 8.18616C18.4729 6.69988 19.0299 6.81805 12.0225 6.81805C4.99012 6.81805 5.52763 6.70605 5.52763 8.16388C5.52763 9.58788 5.22095 9.50022 10.3422 9.53999L14.6918 9.57428L14.7301 10.3079L14.7684 11.0414L15.7318 10.2758C16.6247 9.56616 16.7432 9.50959 17.3497 9.50959ZM6.74773 8.73279C6.80202 8.56159 6.7523 8.37725 6.60877 8.21874C6.39455 7.98205 6.39658 7.97154 6.65677 7.97154C6.8062 7.97154 6.99322 7.85062 7.07236 7.70274L7.21625 7.43382L7.40455 7.70274C7.5081 7.85062 7.71389 7.97154 7.86181 7.97154C8.11423 7.97154 8.11773 7.98639 7.91861 8.20594C7.80194 8.33485 7.70649 8.57268 7.70649 8.73439C7.70649 8.98365 7.67666 9.00365 7.51044 8.86559C7.35843 8.73954 7.24122 8.73622 6.98867 8.85074C6.68894 8.98731 6.66977 8.97851 6.74773 8.73279ZM9.11641 8.64251C9.11641 8.44262 9.04715 8.20982 8.96261 8.12525C8.84298 8.00571 8.85564 7.97142 9.01941 7.97142C9.13525 7.97142 9.31982 7.84331 9.42956 7.68662L9.62908 7.40171L9.8286 7.68662C9.93831 7.84331 10.1203 7.97142 10.233 7.97142C10.4198 7.97142 10.4196 7.99199 10.2307 8.20045C10.1003 8.34457 10.0523 8.54011 10.1014 8.72777C10.1725 8.99965 10.1551 9.01291 9.9043 8.87874C9.70613 8.77245 9.55753 8.77016 9.37286 8.86731C9.14454 8.98948 9.11652 8.96445 9.11652 8.64114L9.11641 8.64251ZM11.5162 8.73394C11.5553 8.58445 11.4876 8.36937 11.3556 8.22354C11.1355 7.98034 11.137 7.97131 11.3991 7.97131C11.5486 7.97131 11.7392 7.84354 11.8228 7.68731L11.9748 7.40331L12.1634 7.68731C12.267 7.84354 12.4692 7.97131 12.6125 7.97131C12.8635 7.97131 12.8647 7.98274 12.6449 8.22354C12.5163 8.36548 12.4454 8.58536 12.4824 8.72685C12.5399 8.94696 12.5121 8.96171 12.2583 8.84605C12.0567 8.75462 11.8895 8.75577 11.7086 8.85748C11.4818 8.97885 11.4572 8.96377 11.5162 8.73828L11.5162 8.73394ZM13.8992 8.72251C13.9482 8.53485 13.9003 8.33931 13.7699 8.19519C13.5809 7.98639 13.5807 7.96617 13.7676 7.96617C13.8803 7.96617 14.0623 7.83805 14.172 7.68137L14.3715 7.39645L14.5711 7.68137C14.6808 7.83805 14.8654 7.96617 14.9812 7.96617C15.145 7.96617 15.1577 8.00045 15.038 8.11999C14.9534 8.20457 14.8842 8.43737 14.8842 8.63725C14.8842 8.96091 14.8562 8.98559 14.6279 8.86342C14.4432 8.76399 14.2946 8.76742 14.0964 8.87485C13.8456 9.00902 13.8282 8.99577 13.8993 8.72388L13.8992 8.72251ZM16.294 8.73394C16.294 8.57222 16.1985 8.33451 16.0819 8.20559C15.8828 7.98559 15.8862 7.97119 16.1387 7.97119C16.2866 7.97119 16.4923 7.85017 16.5959 7.70228L16.7842 7.43348L16.9281 7.70228C17.0072 7.85017 17.1943 7.97119 17.3437 7.97119C17.6039 7.97119 17.6059 7.98262 17.3917 8.21828C17.2482 8.37679 17.1984 8.56114 17.2527 8.73234C17.3307 8.97805 17.3115 8.98742 17.0118 8.85085C16.7592 8.73588 16.642 8.73885 16.49 8.86571C16.3237 9.00365 16.294 8.98319 16.294 8.73394ZM12.0002 14.1383C12.9471 14.1383 13.7145 13.3709 13.7145 12.424C13.7145 11.4771 12.9471 10.7097 12.0002 10.7097C11.0533 10.7097 10.2859 11.4771 10.2859 12.424C10.2859 13.3709 11.0533 14.1383 12.0002 14.1383ZM13.2002 14.5669H12.9765C12.6792 14.7035 12.3484 14.7811 12.0002 14.7811C11.652 14.7811 11.3225 14.7034 11.0239 14.5669H10.8002C9.80646 14.5669 9.00021 15.3731 9.00021 16.3668V16.924C9.00021 17.2789 9.28816 17.5669 9.64307 17.5669H14.3574C14.7123 17.5669 15.0002 17.2789 15.0002 16.924V16.3668C15.0002 15.3731 14.194 14.5669 13.2002 14.5669Z" fill="#6D6D6D"/>
</svg>
