<svg width="25" height="24" viewBox="0 0 25 24" fill="none" xmlns="http://www.w3.org/2000/svg">
<g clip-path="url(#clip0_359_4351)">
<path d="M24.5 1.63522C24.5018 1.19698 24.3327 0.785562 24.0238 0.476656C23.7149 0.167749 23.3027 -0.00109429 22.8653 0.000499462C22.4283 0.00232759 22.0169 0.174031 21.707 0.483968C21.5757 0.615218 21.337 0.898718 21.2064 1.05608C21.1738 1.09536 21.1492 1.14068 21.1341 1.18946C21.119 1.23823 21.1136 1.2895 21.1184 1.34034C21.1231 1.39118 21.1378 1.4406 21.1616 1.48576C21.1854 1.53093 21.2179 1.57096 21.2571 1.60358C21.2964 1.6362 21.3417 1.66076 21.3905 1.67586C21.4393 1.69096 21.4906 1.69631 21.5414 1.69159C21.5922 1.68688 21.6417 1.6722 21.6868 1.64839C21.732 1.62457 21.772 1.5921 21.8046 1.55281C22.0092 1.30644 22.1783 1.11242 22.2568 1.03386C22.4208 0.869937 22.638 0.779093 22.8685 0.778109H22.8722C23.1001 0.778109 23.3137 0.866234 23.474 1.0265C23.6351 1.18761 23.7233 1.40262 23.7223 1.63194C23.7214 1.86242 23.6305 2.07964 23.4666 2.24366C23.3198 2.39042 22.8154 2.79059 22.0926 3.29548C21.665 2.56452 20.8721 2.07209 19.9659 2.07209H14.2723C13.5037 2.07209 12.7812 2.37139 12.2376 2.91481L0.856859 14.2957C0.62675 14.5258 0.5 14.8318 0.5 15.1572C0.5 15.4826 0.62675 15.7886 0.856859 16.0187L8.48187 23.6437C8.71944 23.8812 9.03134 23.9999 9.34334 23.9999C9.65534 23.9999 9.96734 23.8812 10.2048 23.6437L21.5857 12.2629C22.1291 11.7194 22.4284 10.9969 22.4284 10.2282V4.53467C22.4284 4.36662 22.4114 4.20256 22.3791 4.04389C23.2018 3.47778 23.8058 3.0042 24.0164 2.79355C24.3265 2.48361 24.4982 2.07223 24.5 1.63522ZM21.6508 10.2282C21.6508 10.7891 21.4324 11.3164 21.0358 11.7129L9.65497 23.0938C9.48322 23.2656 9.20356 23.2656 9.03177 23.0938L1.40675 15.4688C1.32355 15.3856 1.27766 15.275 1.27766 15.1572C1.27766 15.0395 1.3235 14.9288 1.40675 14.8456L12.7876 3.4648C13.1842 3.06823 13.7114 2.84984 14.2723 2.84984H19.9658C20.6052 2.84984 21.1625 3.20783 21.4479 3.73386C20.9506 4.06334 20.444 4.37864 19.9288 4.67937C19.9117 4.66058 19.8942 4.64219 19.8763 4.6242C19.2396 3.98745 18.2036 3.98745 17.5668 4.6242C16.9301 5.26095 16.9301 6.29698 17.5668 6.93373C17.8852 7.25211 18.3034 7.41125 18.7216 7.41125C19.1397 7.41125 19.558 7.25211 19.8763 6.93373C20.3014 6.50872 20.4422 5.90595 20.2999 5.36262C20.7568 5.09637 21.2072 4.81905 21.6506 4.53092L21.6507 4.53472V10.2282H21.6508ZM18.3743 5.95367C18.3973 5.99929 18.429 6.03995 18.4676 6.07332C18.5063 6.10669 18.5512 6.13211 18.5996 6.14814C18.6481 6.16416 18.6993 6.17048 18.7502 6.16673C18.8012 6.16298 18.8509 6.14923 18.8965 6.12626C19.1249 6.01115 19.3516 5.89245 19.5763 5.7702C19.5786 5.99216 19.4956 6.21481 19.3266 6.38384C18.993 6.71736 18.4504 6.71736 18.1168 6.38384C17.7833 6.05028 17.7833 5.50766 18.1168 5.17409C18.1962 5.09462 18.2905 5.0316 18.3943 4.98868C18.4981 4.94576 18.6094 4.92376 18.7217 4.92397C18.8952 4.92397 19.0681 4.97712 19.2156 5.08161C18.9946 5.20181 18.7717 5.31851 18.547 5.43167C18.5014 5.45459 18.4607 5.48627 18.4273 5.52492C18.394 5.56356 18.3685 5.6084 18.3525 5.65688C18.3364 5.70536 18.3301 5.75653 18.3339 5.80745C18.3376 5.85838 18.3514 5.90806 18.3743 5.95367Z" fill="#FFC300"/>
<path d="M12.0855 7.92041C11.9824 7.92041 11.8835 7.96138 11.8106 8.0343C11.7377 8.10721 11.6967 8.20611 11.6967 8.30924V16.5208C11.6967 16.6239 11.7377 16.7228 11.8106 16.7957C11.8835 16.8686 11.9824 16.9096 12.0855 16.9096C12.1886 16.9096 12.2875 16.8686 12.3605 16.7957C12.4334 16.7228 12.4744 16.6239 12.4744 16.5208V8.30924C12.4744 8.20611 12.4334 8.10721 12.3605 8.0343C12.2875 7.96138 12.1886 7.92041 12.0855 7.92041ZM10.3075 11.2603C9.6708 10.6235 8.63473 10.6235 7.99807 11.2603C7.36132 11.897 7.36132 12.933 7.99807 13.5698C8.31649 13.8882 8.73462 14.0473 9.15284 14.0473C9.57096 14.0473 9.98923 13.8881 10.3076 13.5698C10.616 13.2613 10.7859 12.8512 10.7859 12.415C10.7859 11.9788 10.616 11.5687 10.3075 11.2603ZM9.75766 13.0198C9.4241 13.3534 8.88148 13.3534 8.54796 13.0198C8.21445 12.6863 8.21445 12.1437 8.54796 11.8101C8.71474 11.6433 8.93379 11.56 9.15284 11.56C9.37188 11.56 9.59093 11.6433 9.75771 11.8101C9.8374 11.8893 9.90057 11.9836 9.94358 12.0874C9.98658 12.1913 10.0086 12.3026 10.0083 12.415C10.0085 12.5274 9.98655 12.6387 9.94354 12.7425C9.90052 12.8463 9.83735 12.9406 9.75766 13.0198ZM16.1729 11.2603C15.5362 10.6235 14.5001 10.6235 13.8635 11.2603C13.2267 11.897 13.2267 12.933 13.8635 13.5698C14.1819 13.8882 14.6 14.0473 15.0183 14.0473C15.4364 14.0473 15.8546 13.8882 16.173 13.5698C16.8097 12.933 16.8097 11.897 16.1729 11.2603ZM15.623 13.0198C15.2895 13.3534 14.7469 13.3534 14.4133 13.0198C14.0798 12.6863 14.0798 12.1437 14.4133 11.8101C14.5801 11.6433 14.7992 11.56 15.0182 11.56C15.2373 11.56 15.4563 11.6433 15.6231 11.8101C15.9566 12.1437 15.9566 12.6863 15.623 13.0198Z" fill="#FFC300"/>
</g>
<defs>
<clipPath id="clip0_359_4351">
<rect width="24" height="24" fill="white" transform="translate(0.5)"/>
</clipPath>
</defs>
</svg>
