<svg width="24" height="24" viewBox="0 0 24 24" fill="none" xmlns="http://www.w3.org/2000/svg">
<path d="M15.4576 14.0921C14.6083 14.0921 13.9196 14.7835 13.9196 15.636C13.9196 16.4893 14.6082 17.1804 15.4576 17.1804C16.307 17.1804 16.9956 16.4893 16.9956 15.636C16.9956 14.7835 16.307 14.0921 15.4576 14.0921ZM16.4729 15.2337C16.4729 15.2337 15.3663 16.3257 15.361 16.3313C15.2349 16.4558 15.169 16.436 15.1129 16.3794L14.4514 15.715C14.3951 15.6588 14.3984 15.564 14.4585 15.5037C14.5186 15.4435 14.6126 15.4402 14.6689 15.4968L15.2101 16.0402L16.2581 15.0127C16.3187 14.9532 16.4161 14.9545 16.4756 15.0153C16.5348 15.0764 16.5337 15.1741 16.4729 15.2337ZM10.3548 7.8816H12.7111C12.9595 7.8816 13.1687 7.64715 13.1687 7.35798C13.1687 7.06897 12.9599 6.83545 12.6979 6.83545H10.3548C10.0932 6.83545 9.88409 7.06895 9.88409 7.35798C9.88411 7.64717 10.0937 7.8816 10.3548 7.8816ZM15.28 13.6118C15.5542 13.6118 15.8153 13.669 16.052 13.772V8.59667C16.052 7.88731 15.6709 7.39584 14.8728 7.39584H13.8109C13.8215 7.45261 13.8278 7.51067 13.8278 7.56929C13.8283 8.00894 13.5105 8.44162 13.1326 8.44162H9.87015C9.47247 8.44162 9.15435 8.00894 9.15435 7.56929C9.15491 7.51067 9.16087 7.45261 9.17179 7.39584H8.09691C7.23312 7.39584 7.021 7.88731 7.021 8.59667V15.6224C7.021 16.3845 7.32479 16.8111 8.1623 16.8111H13.7877C13.5063 16.4727 13.3369 16.0373 13.3369 15.5622C13.3369 14.4851 14.207 13.6118 15.28 13.6118ZM9.28837 10.0635H13.8928C14.0629 10.0635 14.207 10.2224 14.2197 10.4062C14.2197 10.5774 14.0405 10.7611 13.8706 10.7611H9.25319C9.08278 10.7611 8.97457 10.5774 8.97457 10.4062C8.97457 10.2348 9.11834 10.0635 9.28837 10.0635ZM11.3618 14.7H9.25319C9.08278 14.7 8.97457 14.5165 8.97457 14.3451C8.97457 14.174 9.11834 14.0028 9.28837 14.0028H11.384C11.5544 14.0028 11.6982 14.1614 11.7109 14.3451C11.7109 14.5165 11.532 14.7 11.3618 14.7ZM9.23426 12.7612C9.06404 12.7612 8.89437 12.5516 8.89437 12.3803C8.89437 12.2098 9.03795 12.0638 9.20836 12.0638H13.8127C13.9828 12.0638 14.1265 12.1966 14.1396 12.3803C14.1396 12.5516 14.0221 12.7612 13.8519 12.7612H9.23426Z" fill="#6D6D6D"/>
</svg>
