<svg width="24" height="24" viewBox="0 0 24 24" fill="none" xmlns="http://www.w3.org/2000/svg">
<g clip-path="url(#clip0_173_2569)">
<path d="M19.8428 13.4497C19.6261 13.0651 19.217 12.8262 18.7751 12.8262C18.5664 12.8262 18.3591 12.8807 18.1758 12.9839L14.6084 14.993C14.5618 15.0192 14.5282 15.0635 14.5155 15.1154C14.4533 15.3694 14.3068 15.724 13.9627 15.9709C13.5818 16.2443 13.0666 16.3012 12.4388 16.1402C12.435 16.1392 12.4313 16.1382 12.428 16.1371L10.3701 15.4982C10.2456 15.4595 10.1759 15.3269 10.2145 15.2025C10.2454 15.1029 10.3361 15.0361 10.4401 15.0361C10.4637 15.0361 10.4874 15.0397 10.5103 15.0468L12.5575 15.6825C12.5608 15.6834 12.5641 15.6844 12.5675 15.6852C13.0503 15.8071 13.4273 15.7732 13.6871 15.5869C14.0152 15.3515 14.073 14.9376 14.0798 14.8768C14.0801 14.8748 14.0803 14.8729 14.0804 14.8709C14.0806 14.8699 14.0806 14.8694 14.0806 14.8692C14.0807 14.8686 14.0807 14.868 14.0808 14.8674C14.0808 14.8669 14.0808 14.8665 14.0809 14.8661C14.1199 14.3557 13.7906 13.8845 13.2971 13.7451L13.2881 13.7424C13.273 13.7375 11.7586 13.2428 10.7937 12.9675C10.6864 12.9369 10.391 12.8658 9.96382 12.8658C9.36631 12.8658 8.47494 13.0074 7.61997 13.6833L4.07177 16.5534C3.99061 16.619 3.97621 16.7372 4.0392 16.8205L5.96038 19.3581C5.99153 19.3992 6.03776 19.4262 6.08885 19.4331C6.0974 19.4342 6.10595 19.4348 6.11455 19.4348C6.15696 19.4348 6.19851 19.4208 6.23249 19.3946L8.70709 17.4892C8.76269 17.4465 8.83724 17.4303 8.90556 17.4465L12.9024 18.391C13.1988 18.461 13.5191 18.4158 13.7843 18.2664L19.3769 15.1167C19.9649 14.7854 20.1739 14.0377 19.8428 13.4497Z" fill="#6D6D6D"/>
<path d="M17.6199 4.56543H10.3154C10.0782 4.56543 9.88574 4.7578 9.88574 4.99511V6.95031C9.88574 7.18762 10.0782 7.37999 10.3154 7.37999H10.4759V11.5317C10.4759 11.769 10.6683 11.9613 10.9056 11.9613H17.0296C17.2669 11.9613 17.4593 11.769 17.4593 11.5317V7.37995H17.6199C17.8572 7.37995 18.0496 7.18758 18.0496 6.95027V4.99511C18.0496 4.7578 17.8572 4.56543 17.6199 4.56543ZM14.8715 8.40082H13.0638C12.8742 8.40082 12.72 8.24661 12.72 8.05708C12.72 7.86755 12.8742 7.71334 13.0638 7.71334H14.8715C15.061 7.71334 15.2153 7.86755 15.2153 8.05708C15.2153 8.24661 15.061 8.40082 14.8715 8.40082ZM17.1903 6.52059H17.0297H10.9056H10.7451V5.42479H17.1903V6.52059Z" fill="#6D6D6D"/>
</g>
<defs>
<clipPath id="clip0_173_2569">
<rect width="16" height="16" fill="white" transform="translate(4 4)"/>
</clipPath>
</defs>
</svg>
