<svg width="120" height="120" viewBox="0 0 120 120" fill="none" xmlns="http://www.w3.org/2000/svg">
<g clip-path="url(#clip0_934_3383)">
<path fill-rule="evenodd" clip-rule="evenodd" d="M42.8218 68.2032C49.4693 80.7911 69.6271 81.2306 75.9949 68.2716C74.2631 66.67 72.9724 64.9611 71.6923 63.2618C71.488 62.9884 71.2728 62.7052 71.0577 62.4318C67.9813 64.6486 64.2596 66.0548 59.3976 66.045C54.1592 66.0353 50.2115 64.2091 46.9738 61.5236C46.7802 61.3673 46.5865 61.2013 46.4037 61.0353C45.9412 62.2071 45.3496 63.6036 44.7257 64.9122C44.1018 66.1622 43.4456 67.3536 42.8218 68.2032ZM28.3112 94.6388H21.3194V92.6954C21.3194 91.7872 21.2226 91.2013 21.0505 90.9571C20.8784 90.7032 20.5772 90.5861 20.1685 90.5861C19.7167 90.5861 19.3725 90.7521 19.1466 91.0939C18.91 91.4259 18.8024 91.9337 18.8024 92.6173C18.8024 93.4962 18.9422 94.1505 19.2004 94.5997C19.4585 95.0392 20.1685 95.5763 21.3302 96.211C24.6647 98.0275 26.773 99.5118 27.6443 100.674C28.5156 101.836 28.9458 103.701 28.9458 106.27C28.9458 108.145 28.6984 109.522 28.2144 110.42C27.7303 111.309 26.8053 112.051 25.4177 112.647C24.0408 113.252 22.4274 113.555 20.5987 113.555C18.5873 113.555 16.8662 113.203 15.4356 112.51C14.0157 111.817 13.0907 110.938 12.6389 109.863C12.1979 108.789 11.9828 107.266 11.9828 105.293V103.565H18.9745V106.768C18.9745 107.754 19.0713 108.389 19.2649 108.672C19.4585 108.955 19.8028 109.092 20.3083 109.092C20.8139 109.092 21.1796 108.916 21.427 108.555C21.6744 108.203 21.7927 107.666 21.7927 106.973C21.7927 105.43 21.5561 104.414 21.0935 103.945C20.6095 103.467 19.437 102.666 17.5762 101.553C15.7045 100.43 14.4783 99.6095 13.8651 99.1017C13.2628 98.5939 12.7572 97.8907 12.3592 96.9923C11.9612 96.0939 11.7569 94.9513 11.7569 93.5548C11.7569 91.5431 12.0365 90.0685 12.6066 89.1407C13.1767 88.213 14.0803 87.4806 15.3495 86.9532C16.6081 86.4259 18.1355 86.1622 19.9211 86.1622C21.8788 86.1622 23.5353 86.4552 24.9121 87.0216C26.289 87.5978 27.1925 88.3204 27.6443 89.1896C28.0853 90.0587 28.3112 91.5431 28.3112 93.6329V94.6388ZM31.6457 86.6603H44.2094V91.9142H39.186V96.9337H43.8759V101.924H39.186V107.715H44.7149V112.969H31.6457V86.6603ZM54.7293 86.6603V107.715H59.2685V112.969H47.1889V86.6603H54.7293ZM68.9817 86.6603V107.715H73.5209V112.969H61.4413V86.6603H68.9817ZM75.6938 86.6603H88.2574V91.9142H83.2341V96.9337H87.9239V101.924H83.2341V107.715H88.763V112.969H75.6938V86.6603ZM91.237 86.6603H96.5614C100.111 86.6603 102.521 86.7872 103.779 87.0314C105.038 87.2853 106.059 87.92 106.855 88.9454C107.651 89.9611 108.049 91.6017 108.049 93.838C108.049 95.879 107.77 97.256 107.21 97.9591C106.651 98.6622 105.554 99.0821 103.897 99.2189C105.382 99.5607 106.393 100.01 106.909 100.567C107.426 101.123 107.738 101.651 107.867 102.119C107.996 102.588 108.06 103.887 108.06 106.006V112.949H101.068V104.199C101.068 102.793 100.95 101.924 100.703 101.582C100.466 101.24 99.8314 101.074 98.7988 101.074V112.949H91.2585V86.6603H91.237ZM98.7881 91.1427V96.9923C99.6271 96.9923 100.219 96.8849 100.552 96.6798C100.886 96.465 101.058 95.7814 101.058 94.6193V93.1739C101.058 92.3341 100.896 91.7872 100.574 91.5236C100.24 91.2696 99.6486 91.1427 98.7881 91.1427ZM77.8558 66.8654C84.9551 71.4161 99.0677 72.5196 105.694 75.8693C122.517 84.3751 122.485 117.588 115.88 120H2.87196C-1.18326 119.277 -3.29154 84.1505 13.0584 75.8693C19.6629 72.5196 33.7002 71.4259 40.8318 66.9044C41.3589 66.1915 41.9182 65.1466 42.4668 64.0235C43.2843 62.3243 44.0373 60.4689 44.5105 59.2091C42.5098 57.0802 40.8103 54.6681 39.1645 52.295L33.754 45.9181C31.7748 43.2423 30.7529 40.7911 30.6884 38.7892C30.6561 37.8419 30.839 36.9825 31.2155 36.2306C31.6242 35.4396 32.2373 34.7853 33.0763 34.2677C33.4636 34.0236 33.9046 33.8282 34.3886 33.6622C34.0337 29.4337 33.9046 25.5275 34.1305 21.0548C34.2488 20.0001 34.4747 18.9357 34.7974 17.8712C41.3374 -3.28114 75.5647 -5.69324 80.3729 10.84C83.3739 13.7892 85.2563 17.6954 85.6651 22.8712L85.3316 34.1798C86.8268 34.59 87.7949 35.4591 88.1821 36.8556C88.6124 38.3986 88.1498 40.5861 86.6977 43.5646C86.6762 43.6134 86.6439 43.672 86.6116 43.7208L80.4482 51.504C78.1893 54.8927 75.8874 58.2814 72.8863 60.9571C73.1552 61.3087 73.4241 61.67 73.693 62.0216C74.9193 63.6427 76.1455 65.2736 77.7267 66.7286C77.7805 66.7677 77.8236 66.8165 77.8558 66.8654ZM37.5188 35.9376C36.3248 35.9767 35.4105 36.2013 34.7974 36.5821C34.4424 36.797 34.1843 37.0704 34.0122 37.4025C33.8293 37.7638 33.7432 38.213 33.754 38.7208C33.797 40.215 34.6683 42.1681 36.3248 44.4142L36.3463 44.4435L41.7569 50.8204C43.9189 53.9552 46.1993 57.1388 49.0175 59.4825C51.7389 61.7384 55.0304 63.2618 59.3868 63.2716C64.109 63.2814 67.5618 61.6993 70.3585 59.3165C73.2735 56.8361 75.5754 53.4474 77.8343 50.0587L83.9225 42.3829C85.0627 40.0294 85.4715 38.4571 85.2133 37.5392C85.0627 36.9923 84.3958 36.7189 83.2556 36.67C83.019 36.6603 82.7608 36.6603 82.5134 36.6603C82.2445 36.67 81.9541 36.6798 81.6636 36.7091C81.5023 36.7189 81.3409 36.7091 81.1904 36.6798C80.6525 36.7091 80.0932 36.67 79.5231 36.5919L81.6099 29.6388C66.1312 31.8556 54.5571 21.4161 38.1964 27.5489L39.3797 35.9962C38.7128 36.0353 38.0996 36.0157 37.5188 35.9376Z" fill="#F6F6F6"/>
</g>
<defs>
<clipPath id="clip0_934_3383">
<rect width="120" height="120" fill="white"/>
</clipPath>
</defs>
</svg>
